<mxfile host="app.diagrams.net" modified="2021-06-01T11:56:52.414Z" agent="5.0 (Windows NT 10.0; Win64; x64) AppleWebKit/537.36 (KHTML, like Gecko) Chrome/91.0.4472.77 Safari/537.36 Edg/91.0.864.37" etag="DqQCKC0_PnDuMGVnvV5B" version="14.7.3" type="github" pages="5">
  <diagram id="QC8WOPj-OCHfLjUUAR2P" name="Page-1">
    <mxGraphModel dx="782" dy="524" grid="1" gridSize="10" guides="1" tooltips="1" connect="1" arrows="1" fold="1" page="1" pageScale="1" pageWidth="827" pageHeight="1169" math="0" shadow="0">
      <root>
        <mxCell id="0" />
        <mxCell id="1" parent="0" />
        <mxCell id="2Vf7W0YXPBgT8Y4s7nWz-31" value="" style="group" parent="1" vertex="1" connectable="0">
          <mxGeometry x="40" y="20" width="410" height="350" as="geometry" />
        </mxCell>
        <mxCell id="2Vf7W0YXPBgT8Y4s7nWz-24" style="edgeStyle=orthogonalEdgeStyle;rounded=0;orthogonalLoop=1;jettySize=auto;html=1;exitX=0;exitY=0.5;exitDx=0;exitDy=0;" parent="2Vf7W0YXPBgT8Y4s7nWz-31" source="2Vf7W0YXPBgT8Y4s7nWz-4" edge="1">
          <mxGeometry relative="1" as="geometry">
            <mxPoint x="60" y="290" as="targetPoint" />
            <mxPoint x="-60" y="120" as="sourcePoint" />
            <Array as="points">
              <mxPoint y="115" />
              <mxPoint y="290" />
            </Array>
          </mxGeometry>
        </mxCell>
        <mxCell id="2Vf7W0YXPBgT8Y4s7nWz-1" value="" style="rounded=0;whiteSpace=wrap;html=1;strokeColor=#d6b656;fillColor=#fff2cc;" parent="2Vf7W0YXPBgT8Y4s7nWz-31" vertex="1">
          <mxGeometry x="60" y="30" width="90" height="320" as="geometry" />
        </mxCell>
        <mxCell id="2Vf7W0YXPBgT8Y4s7nWz-5" value="" style="group;fillColor=#ffe6cc;strokeColor=#d79b00;container=0;" parent="2Vf7W0YXPBgT8Y4s7nWz-31" vertex="1" connectable="0">
          <mxGeometry x="60" y="80" width="80" height="40" as="geometry" />
        </mxCell>
        <mxCell id="2Vf7W0YXPBgT8Y4s7nWz-12" value="" style="group;strokeColor=#006EAF;fontColor=#ffffff;fillColor=#66B2FF;" parent="2Vf7W0YXPBgT8Y4s7nWz-31" vertex="1" connectable="0">
          <mxGeometry x="60" y="80" width="90" height="40" as="geometry" />
        </mxCell>
        <mxCell id="2Vf7W0YXPBgT8Y4s7nWz-3" value="" style="rounded=0;whiteSpace=wrap;html=1;strokeColor=#82b366;fillColor=#d5e8d4;" parent="2Vf7W0YXPBgT8Y4s7nWz-12" vertex="1">
          <mxGeometry width="90" height="30" as="geometry" />
        </mxCell>
        <mxCell id="2Vf7W0YXPBgT8Y4s7nWz-4" value="" style="rounded=0;whiteSpace=wrap;html=1;fillColor=#eeeeee;strokeColor=#36393d;" parent="2Vf7W0YXPBgT8Y4s7nWz-12" vertex="1">
          <mxGeometry y="30" width="90" height="10" as="geometry" />
        </mxCell>
        <mxCell id="2Vf7W0YXPBgT8Y4s7nWz-20" value="a1&lt;span style=&quot;color: rgba(0 , 0 , 0 , 0) ; font-family: monospace ; font-size: 0px&quot;&gt;%3CmxGraphModel%3E%3Croot%3E%3CmxCell%20id%3D%220%22%2F%3E%3CmxCell%20id%3D%221%22%20parent%3D%220%22%2F%3E%3CmxCell%20id%3D%222%22%20value%3D%22%22%20style%3D%22group%22%20vertex%3D%221%22%20connectable%3D%220%22%20parent%3D%221%22%3E%3CmxGeometry%20x%3D%22280%22%20y%3D%22130%22%20width%3D%2290%22%20height%3D%2240%22%20as%3D%22geometry%22%2F%3E%3C%2FmxCell%3E%3CmxCell%20id%3D%223%22%20value%3D%22%22%20style%3D%22rounded%3D0%3BwhiteSpace%3Dwrap%3Bhtml%3D1%3BstrokeColor%3D%2382b366%3BfillColor%3D%23d5e8d4%3B%22%20vertex%3D%221%22%20parent%3D%222%22%3E%3CmxGeometry%20width%3D%2290%22%20height%3D%2230%22%20as%3D%22geometry%22%2F%3E%3C%2FmxCell%3E%3CmxCell%20id%3D%224%22%20value%3D%22%22%20style%3D%22rounded%3D0%3BwhiteSpace%3Dwrap%3Bhtml%3D1%3BfillColor%3D%23eeeeee%3BstrokeColor%3D%2336393d%3B%22%20vertex%3D%221%22%20parent%3D%222%22%3E%3CmxGeometry%20y%3D%2230%22%20width%3D%2290%22%20height%3D%2210%22%20as%3D%22geometry%22%2F%3E%3C%2FmxCell%3E%3C%2Froot%3E%3C%2FmxGraphModel%3E&lt;/span&gt;" style="ellipse;whiteSpace=wrap;html=1;fillColor=#1ba1e2;strokeColor=#006EAF;fontColor=#ffffff;" parent="2Vf7W0YXPBgT8Y4s7nWz-12" vertex="1">
          <mxGeometry x="20" width="50" height="30" as="geometry" />
        </mxCell>
        <mxCell id="2Vf7W0YXPBgT8Y4s7nWz-13" value="" style="group" parent="2Vf7W0YXPBgT8Y4s7nWz-31" vertex="1" connectable="0">
          <mxGeometry x="60" y="160" width="90" height="40" as="geometry" />
        </mxCell>
        <mxCell id="2Vf7W0YXPBgT8Y4s7nWz-14" value="" style="rounded=0;whiteSpace=wrap;html=1;strokeColor=#82b366;fillColor=#d5e8d4;" parent="2Vf7W0YXPBgT8Y4s7nWz-13" vertex="1">
          <mxGeometry width="90" height="30" as="geometry" />
        </mxCell>
        <mxCell id="2Vf7W0YXPBgT8Y4s7nWz-15" value="" style="rounded=0;whiteSpace=wrap;html=1;fillColor=#eeeeee;strokeColor=#36393d;" parent="2Vf7W0YXPBgT8Y4s7nWz-13" vertex="1">
          <mxGeometry y="30" width="90" height="10" as="geometry" />
        </mxCell>
        <mxCell id="2Vf7W0YXPBgT8Y4s7nWz-22" value="a3" style="ellipse;whiteSpace=wrap;html=1;strokeColor=#006EAF;fontColor=#ffffff;fillColor=#66B2FF;" parent="2Vf7W0YXPBgT8Y4s7nWz-13" vertex="1">
          <mxGeometry x="20" width="50" height="30" as="geometry" />
        </mxCell>
        <mxCell id="2Vf7W0YXPBgT8Y4s7nWz-16" value="" style="group" parent="2Vf7W0YXPBgT8Y4s7nWz-31" vertex="1" connectable="0">
          <mxGeometry x="60" y="270" width="90" height="40" as="geometry" />
        </mxCell>
        <mxCell id="2Vf7W0YXPBgT8Y4s7nWz-17" value="" style="rounded=0;whiteSpace=wrap;html=1;strokeColor=#82b366;fillColor=#d5e8d4;" parent="2Vf7W0YXPBgT8Y4s7nWz-16" vertex="1">
          <mxGeometry width="90" height="30" as="geometry" />
        </mxCell>
        <mxCell id="2Vf7W0YXPBgT8Y4s7nWz-18" value="" style="rounded=0;whiteSpace=wrap;html=1;fillColor=#eeeeee;strokeColor=#36393d;" parent="2Vf7W0YXPBgT8Y4s7nWz-16" vertex="1">
          <mxGeometry y="30" width="90" height="10" as="geometry" />
        </mxCell>
        <mxCell id="2Vf7W0YXPBgT8Y4s7nWz-21" value="a2" style="ellipse;whiteSpace=wrap;html=1;strokeColor=#006EAF;fontColor=#ffffff;fillColor=#66B2FF;" parent="2Vf7W0YXPBgT8Y4s7nWz-16" vertex="1">
          <mxGeometry x="20" width="50" height="30" as="geometry" />
        </mxCell>
        <mxCell id="2Vf7W0YXPBgT8Y4s7nWz-25" style="edgeStyle=orthogonalEdgeStyle;rounded=0;orthogonalLoop=1;jettySize=auto;html=1;exitX=1;exitY=0.25;exitDx=0;exitDy=0;entryX=1;entryY=0.75;entryDx=0;entryDy=0;" parent="2Vf7W0YXPBgT8Y4s7nWz-31" target="2Vf7W0YXPBgT8Y4s7nWz-15" edge="1">
          <mxGeometry relative="1" as="geometry">
            <mxPoint x="270" y="280" as="targetPoint" />
            <mxPoint x="150" y="306.5" as="sourcePoint" />
            <Array as="points">
              <mxPoint x="210" y="307" />
              <mxPoint x="210" y="198" />
            </Array>
          </mxGeometry>
        </mxCell>
        <mxCell id="2Vf7W0YXPBgT8Y4s7nWz-26" value="&lt;font style=&quot;font-size: 15px&quot;&gt;单链表&lt;/font&gt;" style="text;html=1;strokeColor=none;fillColor=none;align=center;verticalAlign=middle;whiteSpace=wrap;rounded=0;" parent="2Vf7W0YXPBgT8Y4s7nWz-31" vertex="1">
          <mxGeometry x="67.5" width="75" height="30" as="geometry" />
        </mxCell>
        <mxCell id="2Vf7W0YXPBgT8Y4s7nWz-29" style="edgeStyle=orthogonalEdgeStyle;rounded=0;orthogonalLoop=1;jettySize=auto;html=1;entryX=1;entryY=0;entryDx=0;entryDy=0;" parent="2Vf7W0YXPBgT8Y4s7nWz-31" target="2Vf7W0YXPBgT8Y4s7nWz-3" edge="1">
          <mxGeometry relative="1" as="geometry">
            <mxPoint x="210" y="80" as="sourcePoint" />
            <Array as="points">
              <mxPoint x="200" y="80" />
              <mxPoint x="200" y="80" />
            </Array>
          </mxGeometry>
        </mxCell>
        <mxCell id="2Vf7W0YXPBgT8Y4s7nWz-30" value="L" style="text;html=1;strokeColor=none;fillColor=none;align=center;verticalAlign=middle;whiteSpace=wrap;rounded=0;" parent="2Vf7W0YXPBgT8Y4s7nWz-31" vertex="1">
          <mxGeometry x="210" y="70" width="40" height="20" as="geometry" />
        </mxCell>
        <mxCell id="2Vf7W0YXPBgT8Y4s7nWz-33" value="&lt;font color=&quot;#ffffff&quot;&gt;每个节点除了存放数据元素外，还要存储指向下一个节点的指针&lt;/font&gt;" style="whiteSpace=wrap;html=1;shape=mxgraph.basic.roundRectCallout;dx=30;dy=15;size=15;boundedLbl=1;align=left;gradientDirection=north;fillColor=#4CBF4C;strokeColor=#44AB44;" parent="2Vf7W0YXPBgT8Y4s7nWz-31" vertex="1">
          <mxGeometry x="160" y="110" width="180" height="70" as="geometry" />
        </mxCell>
      </root>
    </mxGraphModel>
  </diagram>
  <diagram id="CoD6kMalqCQWXcZrYFsd" name="Page-2">
    <mxGraphModel dx="920" dy="616" grid="0" gridSize="10" guides="1" tooltips="1" connect="1" arrows="1" fold="1" page="0" pageScale="1" pageWidth="827" pageHeight="1169" background="none" math="0" shadow="0">
      <root>
        <mxCell id="QZkpkENfqjQ9kdNe2Njv-0" />
        <mxCell id="QZkpkENfqjQ9kdNe2Njv-1" parent="QZkpkENfqjQ9kdNe2Njv-0" />
        <mxCell id="6khtCbG-v0wYRklkx3Zs-78" value="" style="group" vertex="1" connectable="0" parent="QZkpkENfqjQ9kdNe2Njv-1">
          <mxGeometry x="50" y="56" width="860" height="324" as="geometry" />
        </mxCell>
        <mxCell id="6khtCbG-v0wYRklkx3Zs-65" value="" style="group;gradientColor=#ffd966;" vertex="1" connectable="0" parent="6khtCbG-v0wYRklkx3Zs-78">
          <mxGeometry x="60" width="800" height="324" as="geometry" />
        </mxCell>
        <mxCell id="QZkpkENfqjQ9kdNe2Njv-2" value="" style="group;fillColor=#647687;strokeColor=#314354;fontColor=#ffffff;" vertex="1" connectable="0" parent="6khtCbG-v0wYRklkx3Zs-65">
          <mxGeometry x="10" y="74" width="100" height="40" as="geometry" />
        </mxCell>
        <mxCell id="QZkpkENfqjQ9kdNe2Njv-3" value="&lt;font style=&quot;font-size: 14px&quot;&gt;头节点&lt;/font&gt;" style="rounded=0;whiteSpace=wrap;html=1;direction=west;fillColor=#6a00ff;strokeColor=#3700CC;fontColor=#ffffff;" vertex="1" parent="QZkpkENfqjQ9kdNe2Njv-2">
          <mxGeometry width="81.82222222222222" height="40" as="geometry" />
        </mxCell>
        <mxCell id="QZkpkENfqjQ9kdNe2Njv-4" value="" style="rounded=0;whiteSpace=wrap;html=1;fillColor=#bac8d3;strokeColor=#23445d;" vertex="1" parent="QZkpkENfqjQ9kdNe2Njv-2">
          <mxGeometry x="81.81818181818183" width="18.181818181818183" height="40" as="geometry" />
        </mxCell>
        <mxCell id="6khtCbG-v0wYRklkx3Zs-0" value="&lt;font style=&quot;font-size: 15px&quot;&gt;依次插入节点1，2，9，8&lt;/font&gt;" style="text;html=1;strokeColor=none;fillColor=none;align=center;verticalAlign=middle;whiteSpace=wrap;rounded=0;" vertex="1" parent="6khtCbG-v0wYRklkx3Zs-65">
          <mxGeometry width="230" height="40" as="geometry" />
        </mxCell>
        <mxCell id="6khtCbG-v0wYRklkx3Zs-1" value="" style="group;fillColor=#60a917;strokeColor=#2D7600;fontColor=#ffffff;" vertex="1" connectable="0" parent="6khtCbG-v0wYRklkx3Zs-65">
          <mxGeometry x="170" y="74" width="100" height="40" as="geometry" />
        </mxCell>
        <mxCell id="6khtCbG-v0wYRklkx3Zs-2" value="&lt;font style=&quot;font-size: 14px&quot;&gt;1&lt;/font&gt;" style="rounded=0;whiteSpace=wrap;html=1;direction=west;fillColor=#60a917;strokeColor=#2D7600;fontColor=#ffffff;" vertex="1" parent="6khtCbG-v0wYRklkx3Zs-1">
          <mxGeometry width="81.82222222222222" height="40" as="geometry" />
        </mxCell>
        <mxCell id="6khtCbG-v0wYRklkx3Zs-3" value="" style="rounded=0;whiteSpace=wrap;html=1;fillColor=#bac8d3;strokeColor=#23445d;" vertex="1" parent="6khtCbG-v0wYRklkx3Zs-1">
          <mxGeometry x="81.81818181818183" width="18.181818181818183" height="40" as="geometry" />
        </mxCell>
        <mxCell id="6khtCbG-v0wYRklkx3Zs-5" style="edgeStyle=orthogonalEdgeStyle;rounded=0;orthogonalLoop=1;jettySize=auto;html=1;exitX=1;exitY=0.5;exitDx=0;exitDy=0;" edge="1" parent="6khtCbG-v0wYRklkx3Zs-65" source="QZkpkENfqjQ9kdNe2Njv-4">
          <mxGeometry relative="1" as="geometry">
            <mxPoint x="170" y="94" as="targetPoint" />
          </mxGeometry>
        </mxCell>
        <mxCell id="6khtCbG-v0wYRklkx3Zs-6" value="" style="group;fillColor=#647687;strokeColor=#314354;fontColor=#ffffff;" vertex="1" connectable="0" parent="6khtCbG-v0wYRklkx3Zs-65">
          <mxGeometry x="10" y="144" width="100" height="40" as="geometry" />
        </mxCell>
        <mxCell id="6khtCbG-v0wYRklkx3Zs-7" value="&lt;font style=&quot;font-size: 14px&quot;&gt;头节点&lt;/font&gt;" style="rounded=0;whiteSpace=wrap;html=1;direction=west;fillColor=#6a00ff;strokeColor=#3700CC;fontColor=#ffffff;" vertex="1" parent="6khtCbG-v0wYRklkx3Zs-6">
          <mxGeometry width="81.82222222222222" height="40" as="geometry" />
        </mxCell>
        <mxCell id="6khtCbG-v0wYRklkx3Zs-8" value="" style="rounded=0;whiteSpace=wrap;html=1;fillColor=#bac8d3;strokeColor=#23445d;" vertex="1" parent="6khtCbG-v0wYRklkx3Zs-6">
          <mxGeometry x="81.81818181818183" width="18.181818181818183" height="40" as="geometry" />
        </mxCell>
        <mxCell id="6khtCbG-v0wYRklkx3Zs-9" value="" style="group;fillColor=#60a917;strokeColor=#2D7600;fontColor=#ffffff;" vertex="1" connectable="0" parent="6khtCbG-v0wYRklkx3Zs-65">
          <mxGeometry x="170" y="144" width="100" height="40" as="geometry" />
        </mxCell>
        <mxCell id="6khtCbG-v0wYRklkx3Zs-10" value="&lt;font style=&quot;font-size: 14px&quot;&gt;2&lt;/font&gt;" style="rounded=0;whiteSpace=wrap;html=1;direction=west;fillColor=#60a917;strokeColor=#2D7600;fontColor=#ffffff;" vertex="1" parent="6khtCbG-v0wYRklkx3Zs-9">
          <mxGeometry width="81.82222222222222" height="40" as="geometry" />
        </mxCell>
        <mxCell id="6khtCbG-v0wYRklkx3Zs-11" value="" style="rounded=0;whiteSpace=wrap;html=1;fillColor=#bac8d3;strokeColor=#23445d;" vertex="1" parent="6khtCbG-v0wYRklkx3Zs-9">
          <mxGeometry x="81.81818181818183" width="18.181818181818183" height="40" as="geometry" />
        </mxCell>
        <mxCell id="6khtCbG-v0wYRklkx3Zs-13" value="" style="group;fillColor=#60a917;strokeColor=#2D7600;fontColor=#ffffff;" vertex="1" connectable="0" parent="6khtCbG-v0wYRklkx3Zs-65">
          <mxGeometry x="320" y="144" width="100" height="40" as="geometry" />
        </mxCell>
        <mxCell id="6khtCbG-v0wYRklkx3Zs-14" value="&lt;font style=&quot;font-size: 14px&quot;&gt;1&lt;/font&gt;" style="rounded=0;whiteSpace=wrap;html=1;direction=west;fillColor=#60a917;strokeColor=#2D7600;fontColor=#ffffff;" vertex="1" parent="6khtCbG-v0wYRklkx3Zs-13">
          <mxGeometry width="81.82222222222222" height="40" as="geometry" />
        </mxCell>
        <mxCell id="6khtCbG-v0wYRklkx3Zs-15" value="" style="rounded=0;whiteSpace=wrap;html=1;fillColor=#bac8d3;strokeColor=#23445d;" vertex="1" parent="6khtCbG-v0wYRklkx3Zs-13">
          <mxGeometry x="81.81818181818183" width="18.181818181818183" height="40" as="geometry" />
        </mxCell>
        <mxCell id="6khtCbG-v0wYRklkx3Zs-16" style="edgeStyle=orthogonalEdgeStyle;rounded=0;orthogonalLoop=1;jettySize=auto;html=1;exitX=1;exitY=0.5;exitDx=0;exitDy=0;entryX=1;entryY=0.5;entryDx=0;entryDy=0;" edge="1" parent="6khtCbG-v0wYRklkx3Zs-65" source="6khtCbG-v0wYRklkx3Zs-8" target="6khtCbG-v0wYRklkx3Zs-10">
          <mxGeometry relative="1" as="geometry" />
        </mxCell>
        <mxCell id="6khtCbG-v0wYRklkx3Zs-18" style="edgeStyle=orthogonalEdgeStyle;rounded=0;orthogonalLoop=1;jettySize=auto;html=1;exitX=1;exitY=0.5;exitDx=0;exitDy=0;entryX=1;entryY=0.5;entryDx=0;entryDy=0;" edge="1" parent="6khtCbG-v0wYRklkx3Zs-65" source="6khtCbG-v0wYRklkx3Zs-11" target="6khtCbG-v0wYRklkx3Zs-14">
          <mxGeometry relative="1" as="geometry" />
        </mxCell>
        <mxCell id="6khtCbG-v0wYRklkx3Zs-19" style="edgeStyle=orthogonalEdgeStyle;rounded=0;orthogonalLoop=1;jettySize=auto;html=1;exitX=1;exitY=0.5;exitDx=0;exitDy=0;" edge="1" parent="6khtCbG-v0wYRklkx3Zs-65" source="6khtCbG-v0wYRklkx3Zs-3">
          <mxGeometry relative="1" as="geometry">
            <mxPoint x="320" y="94" as="targetPoint" />
          </mxGeometry>
        </mxCell>
        <mxCell id="6khtCbG-v0wYRklkx3Zs-20" value="NULL" style="text;html=1;strokeColor=none;fillColor=none;align=center;verticalAlign=middle;whiteSpace=wrap;rounded=0;" vertex="1" parent="6khtCbG-v0wYRklkx3Zs-65">
          <mxGeometry x="320" y="84" width="60" height="20" as="geometry" />
        </mxCell>
        <mxCell id="6khtCbG-v0wYRklkx3Zs-21" value="NULL" style="text;html=1;strokeColor=none;fillColor=none;align=center;verticalAlign=middle;whiteSpace=wrap;rounded=0;" vertex="1" parent="6khtCbG-v0wYRklkx3Zs-65">
          <mxGeometry x="460" y="154" width="60" height="20" as="geometry" />
        </mxCell>
        <mxCell id="6khtCbG-v0wYRklkx3Zs-22" style="edgeStyle=orthogonalEdgeStyle;rounded=0;orthogonalLoop=1;jettySize=auto;html=1;exitX=1;exitY=0.5;exitDx=0;exitDy=0;entryX=0;entryY=0.5;entryDx=0;entryDy=0;" edge="1" parent="6khtCbG-v0wYRklkx3Zs-65" source="6khtCbG-v0wYRklkx3Zs-15" target="6khtCbG-v0wYRklkx3Zs-21">
          <mxGeometry relative="1" as="geometry" />
        </mxCell>
        <mxCell id="6khtCbG-v0wYRklkx3Zs-23" value="" style="group;fillColor=#647687;strokeColor=#314354;fontColor=#ffffff;" vertex="1" connectable="0" parent="6khtCbG-v0wYRklkx3Zs-65">
          <mxGeometry x="10" y="284" width="100" height="40" as="geometry" />
        </mxCell>
        <mxCell id="6khtCbG-v0wYRklkx3Zs-24" value="&lt;font style=&quot;font-size: 14px&quot;&gt;头节点&lt;/font&gt;" style="rounded=0;whiteSpace=wrap;html=1;direction=west;fillColor=#6a00ff;strokeColor=#3700CC;fontColor=#ffffff;" vertex="1" parent="6khtCbG-v0wYRklkx3Zs-23">
          <mxGeometry width="81.82222222222222" height="40" as="geometry" />
        </mxCell>
        <mxCell id="6khtCbG-v0wYRklkx3Zs-25" value="" style="rounded=0;whiteSpace=wrap;html=1;fillColor=#bac8d3;strokeColor=#23445d;" vertex="1" parent="6khtCbG-v0wYRklkx3Zs-23">
          <mxGeometry x="81.81818181818183" width="18.181818181818183" height="40" as="geometry" />
        </mxCell>
        <mxCell id="6khtCbG-v0wYRklkx3Zs-26" value="" style="group;fillColor=#60a917;strokeColor=#2D7600;fontColor=#ffffff;" vertex="1" connectable="0" parent="6khtCbG-v0wYRklkx3Zs-65">
          <mxGeometry x="170" y="284" width="100" height="40" as="geometry" />
        </mxCell>
        <mxCell id="6khtCbG-v0wYRklkx3Zs-27" value="&lt;font style=&quot;font-size: 14px&quot;&gt;8&lt;/font&gt;" style="rounded=0;whiteSpace=wrap;html=1;direction=west;fillColor=#60a917;strokeColor=#2D7600;fontColor=#ffffff;" vertex="1" parent="6khtCbG-v0wYRklkx3Zs-26">
          <mxGeometry width="81.82222222222222" height="40" as="geometry" />
        </mxCell>
        <mxCell id="6khtCbG-v0wYRklkx3Zs-28" value="" style="rounded=0;whiteSpace=wrap;html=1;fillColor=#bac8d3;strokeColor=#23445d;" vertex="1" parent="6khtCbG-v0wYRklkx3Zs-26">
          <mxGeometry x="81.81818181818183" width="18.181818181818183" height="40" as="geometry" />
        </mxCell>
        <mxCell id="6khtCbG-v0wYRklkx3Zs-29" value="" style="group;fillColor=#60a917;strokeColor=#2D7600;fontColor=#ffffff;" vertex="1" connectable="0" parent="6khtCbG-v0wYRklkx3Zs-65">
          <mxGeometry x="320" y="284" width="100" height="40" as="geometry" />
        </mxCell>
        <mxCell id="6khtCbG-v0wYRklkx3Zs-30" value="&lt;font style=&quot;font-size: 14px&quot;&gt;9&lt;/font&gt;" style="rounded=0;whiteSpace=wrap;html=1;direction=west;fillColor=#60a917;strokeColor=#2D7600;fontColor=#ffffff;" vertex="1" parent="6khtCbG-v0wYRklkx3Zs-29">
          <mxGeometry width="81.82222222222222" height="40" as="geometry" />
        </mxCell>
        <mxCell id="6khtCbG-v0wYRklkx3Zs-31" value="" style="rounded=0;whiteSpace=wrap;html=1;fillColor=#bac8d3;strokeColor=#23445d;" vertex="1" parent="6khtCbG-v0wYRklkx3Zs-29">
          <mxGeometry x="81.81818181818183" width="18.181818181818183" height="40" as="geometry" />
        </mxCell>
        <mxCell id="6khtCbG-v0wYRklkx3Zs-32" style="edgeStyle=orthogonalEdgeStyle;rounded=0;orthogonalLoop=1;jettySize=auto;html=1;exitX=1;exitY=0.5;exitDx=0;exitDy=0;entryX=1;entryY=0.5;entryDx=0;entryDy=0;" edge="1" parent="6khtCbG-v0wYRklkx3Zs-65" source="6khtCbG-v0wYRklkx3Zs-25" target="6khtCbG-v0wYRklkx3Zs-27">
          <mxGeometry relative="1" as="geometry" />
        </mxCell>
        <mxCell id="6khtCbG-v0wYRklkx3Zs-33" style="edgeStyle=orthogonalEdgeStyle;rounded=0;orthogonalLoop=1;jettySize=auto;html=1;exitX=1;exitY=0.5;exitDx=0;exitDy=0;entryX=1;entryY=0.5;entryDx=0;entryDy=0;" edge="1" parent="6khtCbG-v0wYRklkx3Zs-65" source="6khtCbG-v0wYRklkx3Zs-28" target="6khtCbG-v0wYRklkx3Zs-30">
          <mxGeometry relative="1" as="geometry" />
        </mxCell>
        <mxCell id="6khtCbG-v0wYRklkx3Zs-34" value="NULL" style="text;html=1;strokeColor=none;fillColor=none;align=center;verticalAlign=middle;whiteSpace=wrap;rounded=0;" vertex="1" parent="6khtCbG-v0wYRklkx3Zs-65">
          <mxGeometry x="610" y="219" width="60" height="30" as="geometry" />
        </mxCell>
        <mxCell id="6khtCbG-v0wYRklkx3Zs-36" value="" style="group;fillColor=#60a917;strokeColor=#2D7600;fontColor=#ffffff;" vertex="1" connectable="0" parent="6khtCbG-v0wYRklkx3Zs-65">
          <mxGeometry x="460" y="284" width="100" height="40" as="geometry" />
        </mxCell>
        <mxCell id="6khtCbG-v0wYRklkx3Zs-37" value="&lt;font style=&quot;font-size: 14px&quot;&gt;2&lt;/font&gt;" style="rounded=0;whiteSpace=wrap;html=1;direction=west;fillColor=#60a917;strokeColor=#2D7600;fontColor=#ffffff;" vertex="1" parent="6khtCbG-v0wYRklkx3Zs-36">
          <mxGeometry width="81.82222222222222" height="40" as="geometry" />
        </mxCell>
        <mxCell id="6khtCbG-v0wYRklkx3Zs-38" value="" style="rounded=0;whiteSpace=wrap;html=1;fillColor=#bac8d3;strokeColor=#23445d;" vertex="1" parent="6khtCbG-v0wYRklkx3Zs-36">
          <mxGeometry x="81.81818181818183" width="18.181818181818183" height="40" as="geometry" />
        </mxCell>
        <mxCell id="6khtCbG-v0wYRklkx3Zs-39" value="" style="group;fillColor=#60a917;strokeColor=#2D7600;fontColor=#ffffff;" vertex="1" connectable="0" parent="6khtCbG-v0wYRklkx3Zs-65">
          <mxGeometry x="600" y="284" width="100" height="40" as="geometry" />
        </mxCell>
        <mxCell id="6khtCbG-v0wYRklkx3Zs-40" value="&lt;font style=&quot;font-size: 14px&quot;&gt;1&lt;/font&gt;" style="rounded=0;whiteSpace=wrap;html=1;direction=west;fillColor=#60a917;strokeColor=#2D7600;fontColor=#ffffff;" vertex="1" parent="6khtCbG-v0wYRklkx3Zs-39">
          <mxGeometry width="81.82222222222222" height="40" as="geometry" />
        </mxCell>
        <mxCell id="6khtCbG-v0wYRklkx3Zs-41" value="" style="rounded=0;whiteSpace=wrap;html=1;fillColor=#bac8d3;strokeColor=#23445d;" vertex="1" parent="6khtCbG-v0wYRklkx3Zs-39">
          <mxGeometry x="81.81818181818183" width="18.181818181818183" height="40" as="geometry" />
        </mxCell>
        <mxCell id="6khtCbG-v0wYRklkx3Zs-42" style="edgeStyle=orthogonalEdgeStyle;rounded=0;orthogonalLoop=1;jettySize=auto;html=1;exitX=1;exitY=0.5;exitDx=0;exitDy=0;entryX=1;entryY=0.5;entryDx=0;entryDy=0;" edge="1" parent="6khtCbG-v0wYRklkx3Zs-65" source="6khtCbG-v0wYRklkx3Zs-31" target="6khtCbG-v0wYRklkx3Zs-37">
          <mxGeometry relative="1" as="geometry" />
        </mxCell>
        <mxCell id="6khtCbG-v0wYRklkx3Zs-43" style="edgeStyle=orthogonalEdgeStyle;rounded=0;orthogonalLoop=1;jettySize=auto;html=1;exitX=1;exitY=0.5;exitDx=0;exitDy=0;" edge="1" parent="6khtCbG-v0wYRklkx3Zs-65" source="6khtCbG-v0wYRklkx3Zs-38" target="6khtCbG-v0wYRklkx3Zs-40">
          <mxGeometry relative="1" as="geometry" />
        </mxCell>
        <mxCell id="6khtCbG-v0wYRklkx3Zs-44" value="" style="group;fillColor=#647687;strokeColor=#314354;fontColor=#ffffff;" vertex="1" connectable="0" parent="6khtCbG-v0wYRklkx3Zs-65">
          <mxGeometry x="10" y="214" width="100" height="40" as="geometry" />
        </mxCell>
        <mxCell id="6khtCbG-v0wYRklkx3Zs-45" value="&lt;font style=&quot;font-size: 14px&quot;&gt;头节点&lt;/font&gt;" style="rounded=0;whiteSpace=wrap;html=1;direction=west;fillColor=#6a00ff;strokeColor=#3700CC;fontColor=#ffffff;" vertex="1" parent="6khtCbG-v0wYRklkx3Zs-44">
          <mxGeometry width="81.82222222222222" height="40" as="geometry" />
        </mxCell>
        <mxCell id="6khtCbG-v0wYRklkx3Zs-46" value="" style="rounded=0;whiteSpace=wrap;html=1;fillColor=#bac8d3;strokeColor=#23445d;" vertex="1" parent="6khtCbG-v0wYRklkx3Zs-44">
          <mxGeometry x="81.81818181818183" width="18.181818181818183" height="40" as="geometry" />
        </mxCell>
        <mxCell id="6khtCbG-v0wYRklkx3Zs-47" value="" style="group;fillColor=#60a917;strokeColor=#2D7600;fontColor=#ffffff;" vertex="1" connectable="0" parent="6khtCbG-v0wYRklkx3Zs-65">
          <mxGeometry x="170" y="214" width="100" height="40" as="geometry" />
        </mxCell>
        <mxCell id="6khtCbG-v0wYRklkx3Zs-48" value="&lt;font style=&quot;font-size: 14px&quot;&gt;9&lt;/font&gt;" style="rounded=0;whiteSpace=wrap;html=1;direction=west;fillColor=#60a917;strokeColor=#2D7600;fontColor=#ffffff;" vertex="1" parent="6khtCbG-v0wYRklkx3Zs-47">
          <mxGeometry width="81.82222222222222" height="40" as="geometry" />
        </mxCell>
        <mxCell id="6khtCbG-v0wYRklkx3Zs-49" value="" style="rounded=0;whiteSpace=wrap;html=1;fillColor=#bac8d3;strokeColor=#23445d;" vertex="1" parent="6khtCbG-v0wYRklkx3Zs-47">
          <mxGeometry x="81.81818181818183" width="18.181818181818183" height="40" as="geometry" />
        </mxCell>
        <mxCell id="6khtCbG-v0wYRklkx3Zs-50" value="" style="group;fillColor=#60a917;strokeColor=#2D7600;fontColor=#ffffff;" vertex="1" connectable="0" parent="6khtCbG-v0wYRklkx3Zs-65">
          <mxGeometry x="320" y="214" width="100" height="40" as="geometry" />
        </mxCell>
        <mxCell id="6khtCbG-v0wYRklkx3Zs-51" value="&lt;font style=&quot;font-size: 14px&quot;&gt;2&lt;/font&gt;" style="rounded=0;whiteSpace=wrap;html=1;direction=west;fillColor=#60a917;strokeColor=#2D7600;fontColor=#ffffff;" vertex="1" parent="6khtCbG-v0wYRklkx3Zs-50">
          <mxGeometry width="81.82222222222222" height="40" as="geometry" />
        </mxCell>
        <mxCell id="6khtCbG-v0wYRklkx3Zs-52" value="" style="rounded=0;whiteSpace=wrap;html=1;fillColor=#bac8d3;strokeColor=#23445d;" vertex="1" parent="6khtCbG-v0wYRklkx3Zs-50">
          <mxGeometry x="81.81818181818183" width="18.181818181818183" height="40" as="geometry" />
        </mxCell>
        <mxCell id="6khtCbG-v0wYRklkx3Zs-53" style="edgeStyle=orthogonalEdgeStyle;rounded=0;orthogonalLoop=1;jettySize=auto;html=1;exitX=1;exitY=0.5;exitDx=0;exitDy=0;entryX=1;entryY=0.5;entryDx=0;entryDy=0;" edge="1" parent="6khtCbG-v0wYRklkx3Zs-65" source="6khtCbG-v0wYRklkx3Zs-46" target="6khtCbG-v0wYRklkx3Zs-48">
          <mxGeometry relative="1" as="geometry" />
        </mxCell>
        <mxCell id="6khtCbG-v0wYRklkx3Zs-54" style="edgeStyle=orthogonalEdgeStyle;rounded=0;orthogonalLoop=1;jettySize=auto;html=1;exitX=1;exitY=0.5;exitDx=0;exitDy=0;entryX=1;entryY=0.5;entryDx=0;entryDy=0;" edge="1" parent="6khtCbG-v0wYRklkx3Zs-65" source="6khtCbG-v0wYRklkx3Zs-49" target="6khtCbG-v0wYRklkx3Zs-51">
          <mxGeometry relative="1" as="geometry" />
        </mxCell>
        <mxCell id="6khtCbG-v0wYRklkx3Zs-55" value="" style="group;fillColor=#60a917;strokeColor=#2D7600;fontColor=#ffffff;" vertex="1" connectable="0" parent="6khtCbG-v0wYRklkx3Zs-65">
          <mxGeometry x="460" y="214" width="100" height="40" as="geometry" />
        </mxCell>
        <mxCell id="6khtCbG-v0wYRklkx3Zs-56" value="&lt;font style=&quot;font-size: 14px&quot;&gt;1&lt;/font&gt;" style="rounded=0;whiteSpace=wrap;html=1;direction=west;fillColor=#60a917;strokeColor=#2D7600;fontColor=#ffffff;" vertex="1" parent="6khtCbG-v0wYRklkx3Zs-55">
          <mxGeometry width="81.82222222222222" height="40" as="geometry" />
        </mxCell>
        <mxCell id="6khtCbG-v0wYRklkx3Zs-57" value="" style="rounded=0;whiteSpace=wrap;html=1;fillColor=#bac8d3;strokeColor=#23445d;" vertex="1" parent="6khtCbG-v0wYRklkx3Zs-55">
          <mxGeometry x="81.81818181818183" width="18.181818181818183" height="40" as="geometry" />
        </mxCell>
        <mxCell id="6khtCbG-v0wYRklkx3Zs-61" style="edgeStyle=orthogonalEdgeStyle;rounded=0;orthogonalLoop=1;jettySize=auto;html=1;exitX=1;exitY=0.5;exitDx=0;exitDy=0;entryX=1;entryY=0.5;entryDx=0;entryDy=0;" edge="1" parent="6khtCbG-v0wYRklkx3Zs-65" source="6khtCbG-v0wYRklkx3Zs-52" target="6khtCbG-v0wYRklkx3Zs-56">
          <mxGeometry relative="1" as="geometry" />
        </mxCell>
        <mxCell id="6khtCbG-v0wYRklkx3Zs-62" style="edgeStyle=orthogonalEdgeStyle;rounded=0;orthogonalLoop=1;jettySize=auto;html=1;exitX=1;exitY=0.5;exitDx=0;exitDy=0;" edge="1" parent="6khtCbG-v0wYRklkx3Zs-65" source="6khtCbG-v0wYRklkx3Zs-57">
          <mxGeometry relative="1" as="geometry">
            <mxPoint x="600" y="234" as="targetPoint" />
          </mxGeometry>
        </mxCell>
        <mxCell id="6khtCbG-v0wYRklkx3Zs-63" style="edgeStyle=orthogonalEdgeStyle;rounded=0;orthogonalLoop=1;jettySize=auto;html=1;exitX=1;exitY=0.5;exitDx=0;exitDy=0;" edge="1" parent="6khtCbG-v0wYRklkx3Zs-65" source="6khtCbG-v0wYRklkx3Zs-41">
          <mxGeometry relative="1" as="geometry">
            <mxPoint x="740" y="304" as="targetPoint" />
          </mxGeometry>
        </mxCell>
        <mxCell id="6khtCbG-v0wYRklkx3Zs-64" value="NULL" style="text;html=1;strokeColor=none;fillColor=none;align=center;verticalAlign=middle;whiteSpace=wrap;rounded=0;" vertex="1" parent="6khtCbG-v0wYRklkx3Zs-65">
          <mxGeometry x="740" y="289" width="60" height="30" as="geometry" />
        </mxCell>
        <mxCell id="6khtCbG-v0wYRklkx3Zs-66" value="&lt;font style=&quot;font-size: 15px&quot;&gt;L&lt;/font&gt;" style="text;html=1;strokeColor=none;fillColor=none;align=center;verticalAlign=middle;whiteSpace=wrap;rounded=0;" vertex="1" parent="6khtCbG-v0wYRklkx3Zs-78">
          <mxGeometry y="84" width="30" height="20" as="geometry" />
        </mxCell>
        <mxCell id="6khtCbG-v0wYRklkx3Zs-71" value="" style="endArrow=classic;html=1;exitX=1;exitY=0.5;exitDx=0;exitDy=0;entryX=1;entryY=0.5;entryDx=0;entryDy=0;" edge="1" parent="6khtCbG-v0wYRklkx3Zs-78" source="6khtCbG-v0wYRklkx3Zs-66" target="QZkpkENfqjQ9kdNe2Njv-3">
          <mxGeometry width="50" height="50" relative="1" as="geometry">
            <mxPoint x="260" y="204" as="sourcePoint" />
            <mxPoint x="310" y="154" as="targetPoint" />
          </mxGeometry>
        </mxCell>
        <mxCell id="6khtCbG-v0wYRklkx3Zs-72" value="&lt;font style=&quot;font-size: 15px&quot;&gt;L&lt;/font&gt;" style="text;html=1;strokeColor=none;fillColor=none;align=center;verticalAlign=middle;whiteSpace=wrap;rounded=0;" vertex="1" parent="6khtCbG-v0wYRklkx3Zs-78">
          <mxGeometry y="152" width="30" height="20" as="geometry" />
        </mxCell>
        <mxCell id="6khtCbG-v0wYRklkx3Zs-73" value="" style="endArrow=classic;html=1;exitX=1;exitY=0.5;exitDx=0;exitDy=0;entryX=1;entryY=0.5;entryDx=0;entryDy=0;" edge="1" parent="6khtCbG-v0wYRklkx3Zs-78" source="6khtCbG-v0wYRklkx3Zs-72">
          <mxGeometry width="50" height="50" relative="1" as="geometry">
            <mxPoint x="260" y="272" as="sourcePoint" />
            <mxPoint x="70" y="162" as="targetPoint" />
          </mxGeometry>
        </mxCell>
        <mxCell id="6khtCbG-v0wYRklkx3Zs-74" value="&lt;font style=&quot;font-size: 15px&quot;&gt;L&lt;/font&gt;" style="text;html=1;strokeColor=none;fillColor=none;align=center;verticalAlign=middle;whiteSpace=wrap;rounded=0;" vertex="1" parent="6khtCbG-v0wYRklkx3Zs-78">
          <mxGeometry y="224" width="30" height="20" as="geometry" />
        </mxCell>
        <mxCell id="6khtCbG-v0wYRklkx3Zs-75" value="" style="endArrow=classic;html=1;exitX=1;exitY=0.5;exitDx=0;exitDy=0;entryX=1;entryY=0.5;entryDx=0;entryDy=0;" edge="1" parent="6khtCbG-v0wYRklkx3Zs-78" source="6khtCbG-v0wYRklkx3Zs-74">
          <mxGeometry width="50" height="50" relative="1" as="geometry">
            <mxPoint x="260" y="344" as="sourcePoint" />
            <mxPoint x="70" y="234" as="targetPoint" />
          </mxGeometry>
        </mxCell>
        <mxCell id="6khtCbG-v0wYRklkx3Zs-76" value="&lt;font style=&quot;font-size: 15px&quot;&gt;L&lt;/font&gt;" style="text;html=1;strokeColor=none;fillColor=none;align=center;verticalAlign=middle;whiteSpace=wrap;rounded=0;" vertex="1" parent="6khtCbG-v0wYRklkx3Zs-78">
          <mxGeometry y="294" width="30" height="20" as="geometry" />
        </mxCell>
        <mxCell id="6khtCbG-v0wYRklkx3Zs-77" value="" style="endArrow=classic;html=1;exitX=1;exitY=0.5;exitDx=0;exitDy=0;entryX=1;entryY=0.5;entryDx=0;entryDy=0;" edge="1" parent="6khtCbG-v0wYRklkx3Zs-78" source="6khtCbG-v0wYRklkx3Zs-76">
          <mxGeometry width="50" height="50" relative="1" as="geometry">
            <mxPoint x="260" y="414" as="sourcePoint" />
            <mxPoint x="70" y="304" as="targetPoint" />
          </mxGeometry>
        </mxCell>
        <mxCell id="6khtCbG-v0wYRklkx3Zs-79" value="" style="group" vertex="1" connectable="0" parent="QZkpkENfqjQ9kdNe2Njv-1">
          <mxGeometry x="60" y="401" width="860" height="329" as="geometry" />
        </mxCell>
        <mxCell id="6khtCbG-v0wYRklkx3Zs-80" value="" style="group;gradientColor=#ffd966;" vertex="1" connectable="0" parent="6khtCbG-v0wYRklkx3Zs-79">
          <mxGeometry x="60" width="800" height="324" as="geometry" />
        </mxCell>
        <mxCell id="6khtCbG-v0wYRklkx3Zs-81" value="" style="group;fillColor=#647687;strokeColor=#314354;fontColor=#ffffff;" vertex="1" connectable="0" parent="6khtCbG-v0wYRklkx3Zs-80">
          <mxGeometry x="10" y="74" width="100" height="40" as="geometry" />
        </mxCell>
        <mxCell id="6khtCbG-v0wYRklkx3Zs-82" value="&lt;font style=&quot;font-size: 14px&quot;&gt;头节点&lt;/font&gt;" style="rounded=0;whiteSpace=wrap;html=1;direction=west;fillColor=#6a00ff;strokeColor=#3700CC;fontColor=#ffffff;" vertex="1" parent="6khtCbG-v0wYRklkx3Zs-81">
          <mxGeometry width="81.82222222222222" height="40" as="geometry" />
        </mxCell>
        <mxCell id="6khtCbG-v0wYRklkx3Zs-83" value="" style="rounded=0;whiteSpace=wrap;html=1;fillColor=#bac8d3;strokeColor=#23445d;" vertex="1" parent="6khtCbG-v0wYRklkx3Zs-81">
          <mxGeometry x="81.81818181818183" width="18.181818181818183" height="40" as="geometry" />
        </mxCell>
        <mxCell id="6khtCbG-v0wYRklkx3Zs-84" value="&lt;font style=&quot;font-size: 15px&quot;&gt;依次插入节点1，2，9，8&lt;/font&gt;" style="text;html=1;strokeColor=none;fillColor=none;align=center;verticalAlign=middle;whiteSpace=wrap;rounded=0;" vertex="1" parent="6khtCbG-v0wYRklkx3Zs-80">
          <mxGeometry width="230" height="40" as="geometry" />
        </mxCell>
        <mxCell id="6khtCbG-v0wYRklkx3Zs-85" value="" style="group;fillColor=#60a917;strokeColor=#2D7600;fontColor=#ffffff;" vertex="1" connectable="0" parent="6khtCbG-v0wYRklkx3Zs-80">
          <mxGeometry x="170" y="74" width="100" height="40" as="geometry" />
        </mxCell>
        <mxCell id="6khtCbG-v0wYRklkx3Zs-86" value="&lt;font style=&quot;font-size: 14px&quot;&gt;1&lt;/font&gt;" style="rounded=0;whiteSpace=wrap;html=1;direction=west;fillColor=#60a917;strokeColor=#2D7600;fontColor=#ffffff;" vertex="1" parent="6khtCbG-v0wYRklkx3Zs-85">
          <mxGeometry width="81.82222222222222" height="40" as="geometry" />
        </mxCell>
        <mxCell id="6khtCbG-v0wYRklkx3Zs-87" value="" style="rounded=0;whiteSpace=wrap;html=1;fillColor=#bac8d3;strokeColor=#23445d;" vertex="1" parent="6khtCbG-v0wYRklkx3Zs-85">
          <mxGeometry x="81.81818181818183" width="18.181818181818183" height="40" as="geometry" />
        </mxCell>
        <mxCell id="6khtCbG-v0wYRklkx3Zs-88" style="edgeStyle=orthogonalEdgeStyle;rounded=0;orthogonalLoop=1;jettySize=auto;html=1;exitX=1;exitY=0.5;exitDx=0;exitDy=0;" edge="1" parent="6khtCbG-v0wYRklkx3Zs-80" source="6khtCbG-v0wYRklkx3Zs-83">
          <mxGeometry relative="1" as="geometry">
            <mxPoint x="170" y="94" as="targetPoint" />
          </mxGeometry>
        </mxCell>
        <mxCell id="6khtCbG-v0wYRklkx3Zs-89" value="" style="group;fillColor=#647687;strokeColor=#314354;fontColor=#ffffff;" vertex="1" connectable="0" parent="6khtCbG-v0wYRklkx3Zs-80">
          <mxGeometry x="10" y="144" width="100" height="40" as="geometry" />
        </mxCell>
        <mxCell id="6khtCbG-v0wYRklkx3Zs-90" value="&lt;font style=&quot;font-size: 14px&quot;&gt;头节点&lt;/font&gt;" style="rounded=0;whiteSpace=wrap;html=1;direction=west;fillColor=#6a00ff;strokeColor=#3700CC;fontColor=#ffffff;" vertex="1" parent="6khtCbG-v0wYRklkx3Zs-89">
          <mxGeometry width="81.82222222222222" height="40" as="geometry" />
        </mxCell>
        <mxCell id="6khtCbG-v0wYRklkx3Zs-91" value="" style="rounded=0;whiteSpace=wrap;html=1;fillColor=#bac8d3;strokeColor=#23445d;" vertex="1" parent="6khtCbG-v0wYRklkx3Zs-89">
          <mxGeometry x="81.81818181818183" width="18.181818181818183" height="40" as="geometry" />
        </mxCell>
        <mxCell id="6khtCbG-v0wYRklkx3Zs-92" value="" style="group;fillColor=#60a917;strokeColor=#2D7600;fontColor=#ffffff;" vertex="1" connectable="0" parent="6khtCbG-v0wYRklkx3Zs-80">
          <mxGeometry x="170" y="144" width="100" height="40" as="geometry" />
        </mxCell>
        <mxCell id="6khtCbG-v0wYRklkx3Zs-93" value="&lt;font style=&quot;font-size: 14px&quot;&gt;1&lt;/font&gt;" style="rounded=0;whiteSpace=wrap;html=1;direction=west;fillColor=#60a917;strokeColor=#2D7600;fontColor=#ffffff;" vertex="1" parent="6khtCbG-v0wYRklkx3Zs-92">
          <mxGeometry width="81.82222222222222" height="40" as="geometry" />
        </mxCell>
        <mxCell id="6khtCbG-v0wYRklkx3Zs-94" value="" style="rounded=0;whiteSpace=wrap;html=1;fillColor=#bac8d3;strokeColor=#23445d;" vertex="1" parent="6khtCbG-v0wYRklkx3Zs-92">
          <mxGeometry x="81.81818181818183" width="18.181818181818183" height="40" as="geometry" />
        </mxCell>
        <mxCell id="6khtCbG-v0wYRklkx3Zs-95" value="" style="group;fillColor=#60a917;strokeColor=#2D7600;fontColor=#ffffff;" vertex="1" connectable="0" parent="6khtCbG-v0wYRklkx3Zs-80">
          <mxGeometry x="320" y="144" width="100" height="40" as="geometry" />
        </mxCell>
        <mxCell id="6khtCbG-v0wYRklkx3Zs-96" value="&lt;font style=&quot;font-size: 14px&quot;&gt;2&lt;/font&gt;" style="rounded=0;whiteSpace=wrap;html=1;direction=west;fillColor=#60a917;strokeColor=#2D7600;fontColor=#ffffff;" vertex="1" parent="6khtCbG-v0wYRklkx3Zs-95">
          <mxGeometry width="81.82222222222222" height="40" as="geometry" />
        </mxCell>
        <mxCell id="6khtCbG-v0wYRklkx3Zs-97" value="" style="rounded=0;whiteSpace=wrap;html=1;fillColor=#bac8d3;strokeColor=#23445d;" vertex="1" parent="6khtCbG-v0wYRklkx3Zs-95">
          <mxGeometry x="81.81818181818183" width="18.181818181818183" height="40" as="geometry" />
        </mxCell>
        <mxCell id="6khtCbG-v0wYRklkx3Zs-98" style="edgeStyle=orthogonalEdgeStyle;rounded=0;orthogonalLoop=1;jettySize=auto;html=1;exitX=1;exitY=0.5;exitDx=0;exitDy=0;entryX=1;entryY=0.5;entryDx=0;entryDy=0;" edge="1" parent="6khtCbG-v0wYRklkx3Zs-80" source="6khtCbG-v0wYRklkx3Zs-91" target="6khtCbG-v0wYRklkx3Zs-93">
          <mxGeometry relative="1" as="geometry" />
        </mxCell>
        <mxCell id="6khtCbG-v0wYRklkx3Zs-99" style="edgeStyle=orthogonalEdgeStyle;rounded=0;orthogonalLoop=1;jettySize=auto;html=1;exitX=1;exitY=0.5;exitDx=0;exitDy=0;entryX=1;entryY=0.5;entryDx=0;entryDy=0;" edge="1" parent="6khtCbG-v0wYRklkx3Zs-80" source="6khtCbG-v0wYRklkx3Zs-94" target="6khtCbG-v0wYRklkx3Zs-96">
          <mxGeometry relative="1" as="geometry" />
        </mxCell>
        <mxCell id="6khtCbG-v0wYRklkx3Zs-100" style="edgeStyle=orthogonalEdgeStyle;rounded=0;orthogonalLoop=1;jettySize=auto;html=1;exitX=1;exitY=0.5;exitDx=0;exitDy=0;" edge="1" parent="6khtCbG-v0wYRklkx3Zs-80" source="6khtCbG-v0wYRklkx3Zs-87">
          <mxGeometry relative="1" as="geometry">
            <mxPoint x="320" y="94" as="targetPoint" />
          </mxGeometry>
        </mxCell>
        <mxCell id="6khtCbG-v0wYRklkx3Zs-101" value="NULL" style="text;html=1;strokeColor=none;fillColor=none;align=center;verticalAlign=middle;whiteSpace=wrap;rounded=0;" vertex="1" parent="6khtCbG-v0wYRklkx3Zs-80">
          <mxGeometry x="320" y="84" width="60" height="20" as="geometry" />
        </mxCell>
        <mxCell id="6khtCbG-v0wYRklkx3Zs-102" value="NULL" style="text;html=1;strokeColor=none;fillColor=none;align=center;verticalAlign=middle;whiteSpace=wrap;rounded=0;" vertex="1" parent="6khtCbG-v0wYRklkx3Zs-80">
          <mxGeometry x="460" y="154" width="60" height="20" as="geometry" />
        </mxCell>
        <mxCell id="6khtCbG-v0wYRklkx3Zs-103" style="edgeStyle=orthogonalEdgeStyle;rounded=0;orthogonalLoop=1;jettySize=auto;html=1;exitX=1;exitY=0.5;exitDx=0;exitDy=0;entryX=0;entryY=0.5;entryDx=0;entryDy=0;" edge="1" parent="6khtCbG-v0wYRklkx3Zs-80" source="6khtCbG-v0wYRklkx3Zs-97" target="6khtCbG-v0wYRklkx3Zs-102">
          <mxGeometry relative="1" as="geometry" />
        </mxCell>
        <mxCell id="6khtCbG-v0wYRklkx3Zs-104" value="" style="group;fillColor=#647687;strokeColor=#314354;fontColor=#ffffff;" vertex="1" connectable="0" parent="6khtCbG-v0wYRklkx3Zs-80">
          <mxGeometry x="10" y="284" width="100" height="40" as="geometry" />
        </mxCell>
        <mxCell id="6khtCbG-v0wYRklkx3Zs-105" value="&lt;font style=&quot;font-size: 14px&quot;&gt;头节点&lt;/font&gt;" style="rounded=0;whiteSpace=wrap;html=1;direction=west;fillColor=#6a00ff;strokeColor=#3700CC;fontColor=#ffffff;" vertex="1" parent="6khtCbG-v0wYRklkx3Zs-104">
          <mxGeometry width="81.82222222222222" height="40" as="geometry" />
        </mxCell>
        <mxCell id="6khtCbG-v0wYRklkx3Zs-106" value="" style="rounded=0;whiteSpace=wrap;html=1;fillColor=#bac8d3;strokeColor=#23445d;" vertex="1" parent="6khtCbG-v0wYRklkx3Zs-104">
          <mxGeometry x="81.81818181818183" width="18.181818181818183" height="40" as="geometry" />
        </mxCell>
        <mxCell id="6khtCbG-v0wYRklkx3Zs-107" value="" style="group;fillColor=#60a917;strokeColor=#2D7600;fontColor=#ffffff;" vertex="1" connectable="0" parent="6khtCbG-v0wYRklkx3Zs-80">
          <mxGeometry x="170" y="284" width="100" height="40" as="geometry" />
        </mxCell>
        <mxCell id="6khtCbG-v0wYRklkx3Zs-108" value="&lt;font style=&quot;font-size: 14px&quot;&gt;1&lt;/font&gt;" style="rounded=0;whiteSpace=wrap;html=1;direction=west;fillColor=#60a917;strokeColor=#2D7600;fontColor=#ffffff;" vertex="1" parent="6khtCbG-v0wYRklkx3Zs-107">
          <mxGeometry width="81.82222222222222" height="40" as="geometry" />
        </mxCell>
        <mxCell id="6khtCbG-v0wYRklkx3Zs-109" value="" style="rounded=0;whiteSpace=wrap;html=1;fillColor=#bac8d3;strokeColor=#23445d;" vertex="1" parent="6khtCbG-v0wYRklkx3Zs-107">
          <mxGeometry x="81.81818181818183" width="18.181818181818183" height="40" as="geometry" />
        </mxCell>
        <mxCell id="6khtCbG-v0wYRklkx3Zs-110" value="" style="group;fillColor=#60a917;strokeColor=#2D7600;fontColor=#ffffff;" vertex="1" connectable="0" parent="6khtCbG-v0wYRklkx3Zs-80">
          <mxGeometry x="320" y="284" width="100" height="40" as="geometry" />
        </mxCell>
        <mxCell id="6khtCbG-v0wYRklkx3Zs-111" value="&lt;font style=&quot;font-size: 14px&quot;&gt;2&lt;/font&gt;" style="rounded=0;whiteSpace=wrap;html=1;direction=west;fillColor=#60a917;strokeColor=#2D7600;fontColor=#ffffff;" vertex="1" parent="6khtCbG-v0wYRklkx3Zs-110">
          <mxGeometry width="81.82222222222222" height="40" as="geometry" />
        </mxCell>
        <mxCell id="6khtCbG-v0wYRklkx3Zs-112" value="" style="rounded=0;whiteSpace=wrap;html=1;fillColor=#bac8d3;strokeColor=#23445d;" vertex="1" parent="6khtCbG-v0wYRklkx3Zs-110">
          <mxGeometry x="81.81818181818183" width="18.181818181818183" height="40" as="geometry" />
        </mxCell>
        <mxCell id="6khtCbG-v0wYRklkx3Zs-113" style="edgeStyle=orthogonalEdgeStyle;rounded=0;orthogonalLoop=1;jettySize=auto;html=1;exitX=1;exitY=0.5;exitDx=0;exitDy=0;entryX=1;entryY=0.5;entryDx=0;entryDy=0;" edge="1" parent="6khtCbG-v0wYRklkx3Zs-80" source="6khtCbG-v0wYRklkx3Zs-106" target="6khtCbG-v0wYRklkx3Zs-108">
          <mxGeometry relative="1" as="geometry" />
        </mxCell>
        <mxCell id="6khtCbG-v0wYRklkx3Zs-114" style="edgeStyle=orthogonalEdgeStyle;rounded=0;orthogonalLoop=1;jettySize=auto;html=1;exitX=1;exitY=0.5;exitDx=0;exitDy=0;entryX=1;entryY=0.5;entryDx=0;entryDy=0;" edge="1" parent="6khtCbG-v0wYRklkx3Zs-80" source="6khtCbG-v0wYRklkx3Zs-109" target="6khtCbG-v0wYRklkx3Zs-111">
          <mxGeometry relative="1" as="geometry" />
        </mxCell>
        <mxCell id="6khtCbG-v0wYRklkx3Zs-115" value="NULL" style="text;html=1;strokeColor=none;fillColor=none;align=center;verticalAlign=middle;whiteSpace=wrap;rounded=0;" vertex="1" parent="6khtCbG-v0wYRklkx3Zs-80">
          <mxGeometry x="610" y="219" width="60" height="30" as="geometry" />
        </mxCell>
        <mxCell id="6khtCbG-v0wYRklkx3Zs-116" value="" style="group;fillColor=#60a917;strokeColor=#2D7600;fontColor=#ffffff;" vertex="1" connectable="0" parent="6khtCbG-v0wYRklkx3Zs-80">
          <mxGeometry x="460" y="284" width="100" height="40" as="geometry" />
        </mxCell>
        <mxCell id="6khtCbG-v0wYRklkx3Zs-117" value="&lt;font style=&quot;font-size: 14px&quot;&gt;9&lt;/font&gt;" style="rounded=0;whiteSpace=wrap;html=1;direction=west;fillColor=#60a917;strokeColor=#2D7600;fontColor=#ffffff;" vertex="1" parent="6khtCbG-v0wYRklkx3Zs-116">
          <mxGeometry width="81.82222222222222" height="40" as="geometry" />
        </mxCell>
        <mxCell id="6khtCbG-v0wYRklkx3Zs-118" value="" style="rounded=0;whiteSpace=wrap;html=1;fillColor=#bac8d3;strokeColor=#23445d;" vertex="1" parent="6khtCbG-v0wYRklkx3Zs-116">
          <mxGeometry x="81.81818181818183" width="18.181818181818183" height="40" as="geometry" />
        </mxCell>
        <mxCell id="6khtCbG-v0wYRklkx3Zs-119" value="" style="group;fillColor=#60a917;strokeColor=#2D7600;fontColor=#ffffff;" vertex="1" connectable="0" parent="6khtCbG-v0wYRklkx3Zs-80">
          <mxGeometry x="600" y="284" width="100" height="40" as="geometry" />
        </mxCell>
        <mxCell id="6khtCbG-v0wYRklkx3Zs-120" value="&lt;font style=&quot;font-size: 14px&quot;&gt;8&lt;/font&gt;" style="rounded=0;whiteSpace=wrap;html=1;direction=west;fillColor=#60a917;strokeColor=#2D7600;fontColor=#ffffff;" vertex="1" parent="6khtCbG-v0wYRklkx3Zs-119">
          <mxGeometry width="81.82222222222222" height="40" as="geometry" />
        </mxCell>
        <mxCell id="6khtCbG-v0wYRklkx3Zs-121" value="" style="rounded=0;whiteSpace=wrap;html=1;fillColor=#bac8d3;strokeColor=#23445d;" vertex="1" parent="6khtCbG-v0wYRklkx3Zs-119">
          <mxGeometry x="81.81818181818183" width="18.181818181818183" height="40" as="geometry" />
        </mxCell>
        <mxCell id="6khtCbG-v0wYRklkx3Zs-122" style="edgeStyle=orthogonalEdgeStyle;rounded=0;orthogonalLoop=1;jettySize=auto;html=1;exitX=1;exitY=0.5;exitDx=0;exitDy=0;entryX=1;entryY=0.5;entryDx=0;entryDy=0;" edge="1" parent="6khtCbG-v0wYRklkx3Zs-80" source="6khtCbG-v0wYRklkx3Zs-112" target="6khtCbG-v0wYRklkx3Zs-117">
          <mxGeometry relative="1" as="geometry" />
        </mxCell>
        <mxCell id="6khtCbG-v0wYRklkx3Zs-123" style="edgeStyle=orthogonalEdgeStyle;rounded=0;orthogonalLoop=1;jettySize=auto;html=1;exitX=1;exitY=0.5;exitDx=0;exitDy=0;" edge="1" parent="6khtCbG-v0wYRklkx3Zs-80" source="6khtCbG-v0wYRklkx3Zs-118" target="6khtCbG-v0wYRklkx3Zs-120">
          <mxGeometry relative="1" as="geometry" />
        </mxCell>
        <mxCell id="6khtCbG-v0wYRklkx3Zs-124" value="" style="group;fillColor=#647687;strokeColor=#314354;fontColor=#ffffff;" vertex="1" connectable="0" parent="6khtCbG-v0wYRklkx3Zs-80">
          <mxGeometry x="10" y="214" width="100" height="40" as="geometry" />
        </mxCell>
        <mxCell id="6khtCbG-v0wYRklkx3Zs-125" value="&lt;font style=&quot;font-size: 14px&quot;&gt;头节点&lt;/font&gt;" style="rounded=0;whiteSpace=wrap;html=1;direction=west;fillColor=#6a00ff;strokeColor=#3700CC;fontColor=#ffffff;" vertex="1" parent="6khtCbG-v0wYRklkx3Zs-124">
          <mxGeometry width="81.82222222222222" height="40" as="geometry" />
        </mxCell>
        <mxCell id="6khtCbG-v0wYRklkx3Zs-126" value="" style="rounded=0;whiteSpace=wrap;html=1;fillColor=#bac8d3;strokeColor=#23445d;" vertex="1" parent="6khtCbG-v0wYRklkx3Zs-124">
          <mxGeometry x="81.81818181818183" width="18.181818181818183" height="40" as="geometry" />
        </mxCell>
        <mxCell id="6khtCbG-v0wYRklkx3Zs-127" value="" style="group;fillColor=#60a917;strokeColor=#2D7600;fontColor=#ffffff;" vertex="1" connectable="0" parent="6khtCbG-v0wYRklkx3Zs-80">
          <mxGeometry x="170" y="214" width="100" height="40" as="geometry" />
        </mxCell>
        <mxCell id="6khtCbG-v0wYRklkx3Zs-128" value="&lt;font style=&quot;font-size: 14px&quot;&gt;1&lt;/font&gt;" style="rounded=0;whiteSpace=wrap;html=1;direction=west;fillColor=#60a917;strokeColor=#2D7600;fontColor=#ffffff;" vertex="1" parent="6khtCbG-v0wYRklkx3Zs-127">
          <mxGeometry width="81.82222222222222" height="40" as="geometry" />
        </mxCell>
        <mxCell id="6khtCbG-v0wYRklkx3Zs-129" value="" style="rounded=0;whiteSpace=wrap;html=1;fillColor=#bac8d3;strokeColor=#23445d;" vertex="1" parent="6khtCbG-v0wYRklkx3Zs-127">
          <mxGeometry x="81.81818181818183" width="18.181818181818183" height="40" as="geometry" />
        </mxCell>
        <mxCell id="6khtCbG-v0wYRklkx3Zs-130" value="" style="group;fillColor=#60a917;strokeColor=#2D7600;fontColor=#ffffff;" vertex="1" connectable="0" parent="6khtCbG-v0wYRklkx3Zs-80">
          <mxGeometry x="320" y="214" width="100" height="40" as="geometry" />
        </mxCell>
        <mxCell id="6khtCbG-v0wYRklkx3Zs-131" value="&lt;font style=&quot;font-size: 14px&quot;&gt;2&lt;/font&gt;" style="rounded=0;whiteSpace=wrap;html=1;direction=west;fillColor=#60a917;strokeColor=#2D7600;fontColor=#ffffff;" vertex="1" parent="6khtCbG-v0wYRklkx3Zs-130">
          <mxGeometry width="81.82222222222222" height="40" as="geometry" />
        </mxCell>
        <mxCell id="6khtCbG-v0wYRklkx3Zs-132" value="" style="rounded=0;whiteSpace=wrap;html=1;fillColor=#bac8d3;strokeColor=#23445d;" vertex="1" parent="6khtCbG-v0wYRklkx3Zs-130">
          <mxGeometry x="81.81818181818183" width="18.181818181818183" height="40" as="geometry" />
        </mxCell>
        <mxCell id="6khtCbG-v0wYRklkx3Zs-133" style="edgeStyle=orthogonalEdgeStyle;rounded=0;orthogonalLoop=1;jettySize=auto;html=1;exitX=1;exitY=0.5;exitDx=0;exitDy=0;entryX=1;entryY=0.5;entryDx=0;entryDy=0;" edge="1" parent="6khtCbG-v0wYRklkx3Zs-80" source="6khtCbG-v0wYRklkx3Zs-126" target="6khtCbG-v0wYRklkx3Zs-128">
          <mxGeometry relative="1" as="geometry" />
        </mxCell>
        <mxCell id="6khtCbG-v0wYRklkx3Zs-134" style="edgeStyle=orthogonalEdgeStyle;rounded=0;orthogonalLoop=1;jettySize=auto;html=1;exitX=1;exitY=0.5;exitDx=0;exitDy=0;entryX=1;entryY=0.5;entryDx=0;entryDy=0;" edge="1" parent="6khtCbG-v0wYRklkx3Zs-80" source="6khtCbG-v0wYRklkx3Zs-129" target="6khtCbG-v0wYRklkx3Zs-131">
          <mxGeometry relative="1" as="geometry" />
        </mxCell>
        <mxCell id="6khtCbG-v0wYRklkx3Zs-135" value="" style="group;fillColor=#60a917;strokeColor=#2D7600;fontColor=#ffffff;" vertex="1" connectable="0" parent="6khtCbG-v0wYRklkx3Zs-80">
          <mxGeometry x="460" y="214" width="100" height="40" as="geometry" />
        </mxCell>
        <mxCell id="6khtCbG-v0wYRklkx3Zs-136" value="&lt;font style=&quot;font-size: 14px&quot;&gt;9&lt;/font&gt;" style="rounded=0;whiteSpace=wrap;html=1;direction=west;fillColor=#60a917;strokeColor=#2D7600;fontColor=#ffffff;" vertex="1" parent="6khtCbG-v0wYRklkx3Zs-135">
          <mxGeometry width="81.82222222222222" height="40" as="geometry" />
        </mxCell>
        <mxCell id="6khtCbG-v0wYRklkx3Zs-137" value="" style="rounded=0;whiteSpace=wrap;html=1;fillColor=#bac8d3;strokeColor=#23445d;" vertex="1" parent="6khtCbG-v0wYRklkx3Zs-135">
          <mxGeometry x="81.81818181818183" width="18.181818181818183" height="40" as="geometry" />
        </mxCell>
        <mxCell id="6khtCbG-v0wYRklkx3Zs-138" style="edgeStyle=orthogonalEdgeStyle;rounded=0;orthogonalLoop=1;jettySize=auto;html=1;exitX=1;exitY=0.5;exitDx=0;exitDy=0;entryX=1;entryY=0.5;entryDx=0;entryDy=0;" edge="1" parent="6khtCbG-v0wYRklkx3Zs-80" source="6khtCbG-v0wYRklkx3Zs-132" target="6khtCbG-v0wYRklkx3Zs-136">
          <mxGeometry relative="1" as="geometry" />
        </mxCell>
        <mxCell id="6khtCbG-v0wYRklkx3Zs-139" style="edgeStyle=orthogonalEdgeStyle;rounded=0;orthogonalLoop=1;jettySize=auto;html=1;exitX=1;exitY=0.5;exitDx=0;exitDy=0;" edge="1" parent="6khtCbG-v0wYRklkx3Zs-80" source="6khtCbG-v0wYRklkx3Zs-137">
          <mxGeometry relative="1" as="geometry">
            <mxPoint x="600" y="234" as="targetPoint" />
          </mxGeometry>
        </mxCell>
        <mxCell id="6khtCbG-v0wYRklkx3Zs-140" style="edgeStyle=orthogonalEdgeStyle;rounded=0;orthogonalLoop=1;jettySize=auto;html=1;exitX=1;exitY=0.5;exitDx=0;exitDy=0;" edge="1" parent="6khtCbG-v0wYRklkx3Zs-80" source="6khtCbG-v0wYRklkx3Zs-121">
          <mxGeometry relative="1" as="geometry">
            <mxPoint x="740" y="304" as="targetPoint" />
          </mxGeometry>
        </mxCell>
        <mxCell id="6khtCbG-v0wYRklkx3Zs-141" value="NULL" style="text;html=1;strokeColor=none;fillColor=none;align=center;verticalAlign=middle;whiteSpace=wrap;rounded=0;" vertex="1" parent="6khtCbG-v0wYRklkx3Zs-80">
          <mxGeometry x="740" y="289" width="60" height="30" as="geometry" />
        </mxCell>
        <mxCell id="6khtCbG-v0wYRklkx3Zs-142" value="&lt;font style=&quot;font-size: 15px&quot;&gt;L&lt;/font&gt;" style="text;html=1;strokeColor=none;fillColor=none;align=center;verticalAlign=middle;whiteSpace=wrap;rounded=0;" vertex="1" parent="6khtCbG-v0wYRklkx3Zs-79">
          <mxGeometry y="84" width="30" height="20" as="geometry" />
        </mxCell>
        <mxCell id="6khtCbG-v0wYRklkx3Zs-143" value="" style="endArrow=classic;html=1;exitX=1;exitY=0.5;exitDx=0;exitDy=0;entryX=1;entryY=0.5;entryDx=0;entryDy=0;" edge="1" parent="6khtCbG-v0wYRklkx3Zs-79" source="6khtCbG-v0wYRklkx3Zs-142" target="6khtCbG-v0wYRklkx3Zs-82">
          <mxGeometry width="50" height="50" relative="1" as="geometry">
            <mxPoint x="260" y="204" as="sourcePoint" />
            <mxPoint x="310" y="154" as="targetPoint" />
          </mxGeometry>
        </mxCell>
        <mxCell id="6khtCbG-v0wYRklkx3Zs-144" value="&lt;font style=&quot;font-size: 15px&quot;&gt;L&lt;/font&gt;" style="text;html=1;strokeColor=none;fillColor=none;align=center;verticalAlign=middle;whiteSpace=wrap;rounded=0;" vertex="1" parent="6khtCbG-v0wYRklkx3Zs-79">
          <mxGeometry y="152" width="30" height="20" as="geometry" />
        </mxCell>
        <mxCell id="6khtCbG-v0wYRklkx3Zs-145" value="" style="endArrow=classic;html=1;exitX=1;exitY=0.5;exitDx=0;exitDy=0;entryX=1;entryY=0.5;entryDx=0;entryDy=0;" edge="1" parent="6khtCbG-v0wYRklkx3Zs-79" source="6khtCbG-v0wYRklkx3Zs-144">
          <mxGeometry width="50" height="50" relative="1" as="geometry">
            <mxPoint x="260" y="272" as="sourcePoint" />
            <mxPoint x="70" y="162" as="targetPoint" />
          </mxGeometry>
        </mxCell>
        <mxCell id="6khtCbG-v0wYRklkx3Zs-146" value="&lt;font style=&quot;font-size: 15px&quot;&gt;L&lt;/font&gt;" style="text;html=1;strokeColor=none;fillColor=none;align=center;verticalAlign=middle;whiteSpace=wrap;rounded=0;" vertex="1" parent="6khtCbG-v0wYRklkx3Zs-79">
          <mxGeometry y="224" width="30" height="20" as="geometry" />
        </mxCell>
        <mxCell id="6khtCbG-v0wYRklkx3Zs-147" value="" style="endArrow=classic;html=1;exitX=1;exitY=0.5;exitDx=0;exitDy=0;entryX=1;entryY=0.5;entryDx=0;entryDy=0;" edge="1" parent="6khtCbG-v0wYRklkx3Zs-79" source="6khtCbG-v0wYRklkx3Zs-146">
          <mxGeometry width="50" height="50" relative="1" as="geometry">
            <mxPoint x="260" y="344" as="sourcePoint" />
            <mxPoint x="70" y="234" as="targetPoint" />
          </mxGeometry>
        </mxCell>
        <mxCell id="6khtCbG-v0wYRklkx3Zs-148" value="&lt;font style=&quot;font-size: 15px&quot;&gt;L&lt;/font&gt;" style="text;html=1;strokeColor=none;fillColor=none;align=center;verticalAlign=middle;whiteSpace=wrap;rounded=0;" vertex="1" parent="6khtCbG-v0wYRklkx3Zs-79">
          <mxGeometry y="294" width="30" height="20" as="geometry" />
        </mxCell>
        <mxCell id="6khtCbG-v0wYRklkx3Zs-149" value="" style="endArrow=classic;html=1;exitX=1;exitY=0.5;exitDx=0;exitDy=0;entryX=1;entryY=0.5;entryDx=0;entryDy=0;" edge="1" parent="6khtCbG-v0wYRklkx3Zs-79" source="6khtCbG-v0wYRklkx3Zs-148">
          <mxGeometry width="50" height="50" relative="1" as="geometry">
            <mxPoint x="260" y="414" as="sourcePoint" />
            <mxPoint x="70" y="304" as="targetPoint" />
          </mxGeometry>
        </mxCell>
      </root>
    </mxGraphModel>
  </diagram>
  <diagram id="h8LQPO_4asFj-SQ73k0w" name="Page-3">
    <mxGraphModel dx="782" dy="924" grid="1" gridSize="10" guides="1" tooltips="1" connect="1" arrows="1" fold="1" page="0" pageScale="1" pageWidth="827" pageHeight="1169" math="0" shadow="0">
      <root>
        <mxCell id="HGIbafyIikdIQnF0ROzi-0" />
        <mxCell id="HGIbafyIikdIQnF0ROzi-1" parent="HGIbafyIikdIQnF0ROzi-0" />
        <mxCell id="Y6a2tzBEzzJLtpBsia-G-67" value="&lt;font style=&quot;font-size: 15px&quot;&gt;L&lt;/font&gt;" style="text;html=1;strokeColor=none;fillColor=none;align=center;verticalAlign=middle;whiteSpace=wrap;rounded=0;" parent="HGIbafyIikdIQnF0ROzi-1" vertex="1">
          <mxGeometry x="10" y="90" width="30" height="20" as="geometry" />
        </mxCell>
        <mxCell id="Y6a2tzBEzzJLtpBsia-G-68" value="" style="endArrow=classic;html=1;exitX=1;exitY=0.5;exitDx=0;exitDy=0;entryX=1;entryY=0.5;entryDx=0;entryDy=0;" parent="HGIbafyIikdIQnF0ROzi-1" source="Y6a2tzBEzzJLtpBsia-G-67" edge="1">
          <mxGeometry x="10" y="-134" width="50" height="50" as="geometry">
            <mxPoint x="270" y="210" as="sourcePoint" />
            <mxPoint x="80" y="100" as="targetPoint" />
          </mxGeometry>
        </mxCell>
        <mxCell id="Y6a2tzBEzzJLtpBsia-G-36" value="NULL" style="text;html=1;strokeColor=none;fillColor=none;align=center;verticalAlign=middle;whiteSpace=wrap;rounded=0;" parent="HGIbafyIikdIQnF0ROzi-1" vertex="1">
          <mxGeometry x="760" y="309" width="60" height="30" as="geometry" />
        </mxCell>
        <mxCell id="Y6a2tzBEzzJLtpBsia-G-45" value="" style="group;fillColor=#647687;strokeColor=#314354;fontColor=#ffffff;" parent="HGIbafyIikdIQnF0ROzi-1" vertex="1" connectable="0">
          <mxGeometry x="80" y="80" width="100" height="40" as="geometry" />
        </mxCell>
        <mxCell id="Y6a2tzBEzzJLtpBsia-G-46" value="&lt;font style=&quot;font-size: 14px&quot;&gt;头节点&lt;/font&gt;" style="rounded=0;whiteSpace=wrap;html=1;direction=west;fillColor=#6a00ff;strokeColor=#3700CC;fontColor=#ffffff;" parent="Y6a2tzBEzzJLtpBsia-G-45" vertex="1">
          <mxGeometry width="81.82222222222222" height="40" as="geometry" />
        </mxCell>
        <mxCell id="Y6a2tzBEzzJLtpBsia-G-47" value="" style="rounded=0;whiteSpace=wrap;html=1;fillColor=#bac8d3;strokeColor=#23445d;" parent="Y6a2tzBEzzJLtpBsia-G-45" vertex="1">
          <mxGeometry x="81.81818181818183" width="18.181818181818183" height="40" as="geometry" />
        </mxCell>
        <mxCell id="Y6a2tzBEzzJLtpBsia-G-48" value="" style="group;fillColor=#60a917;strokeColor=#2D7600;fontColor=#ffffff;" parent="HGIbafyIikdIQnF0ROzi-1" vertex="1" connectable="0">
          <mxGeometry x="240" y="80" width="100" height="40" as="geometry" />
        </mxCell>
        <mxCell id="Y6a2tzBEzzJLtpBsia-G-49" value="&lt;font style=&quot;font-size: 14px&quot;&gt;1&lt;/font&gt;" style="rounded=0;whiteSpace=wrap;html=1;direction=west;fillColor=#60a917;strokeColor=#2D7600;fontColor=#ffffff;" parent="Y6a2tzBEzzJLtpBsia-G-48" vertex="1">
          <mxGeometry width="81.82222222222222" height="40" as="geometry" />
        </mxCell>
        <mxCell id="Y6a2tzBEzzJLtpBsia-G-50" value="" style="rounded=0;whiteSpace=wrap;html=1;fillColor=#bac8d3;strokeColor=#23445d;" parent="Y6a2tzBEzzJLtpBsia-G-48" vertex="1">
          <mxGeometry x="81.81818181818183" width="18.181818181818183" height="40" as="geometry" />
        </mxCell>
        <mxCell id="Y6a2tzBEzzJLtpBsia-G-51" value="" style="group;fillColor=#60a917;strokeColor=#2D7600;fontColor=#ffffff;" parent="HGIbafyIikdIQnF0ROzi-1" vertex="1" connectable="0">
          <mxGeometry x="390" y="80" width="100" height="40" as="geometry" />
        </mxCell>
        <mxCell id="Y6a2tzBEzzJLtpBsia-G-52" value="&lt;font style=&quot;font-size: 14px&quot;&gt;2&lt;/font&gt;" style="rounded=0;whiteSpace=wrap;html=1;direction=west;fillColor=#60a917;strokeColor=#2D7600;fontColor=#ffffff;" parent="Y6a2tzBEzzJLtpBsia-G-51" vertex="1">
          <mxGeometry width="81.82222222222222" height="40" as="geometry" />
        </mxCell>
        <mxCell id="Y6a2tzBEzzJLtpBsia-G-53" value="" style="rounded=0;whiteSpace=wrap;html=1;fillColor=#bac8d3;strokeColor=#23445d;" parent="Y6a2tzBEzzJLtpBsia-G-51" vertex="1">
          <mxGeometry x="81.81818181818183" width="18.181818181818183" height="40" as="geometry" />
        </mxCell>
        <mxCell id="Y6a2tzBEzzJLtpBsia-G-54" style="edgeStyle=orthogonalEdgeStyle;rounded=0;orthogonalLoop=1;jettySize=auto;html=1;exitX=1;exitY=0.5;exitDx=0;exitDy=0;entryX=1;entryY=0.5;entryDx=0;entryDy=0;" parent="HGIbafyIikdIQnF0ROzi-1" source="Y6a2tzBEzzJLtpBsia-G-47" target="Y6a2tzBEzzJLtpBsia-G-49" edge="1">
          <mxGeometry x="70" y="-134" as="geometry" />
        </mxCell>
        <mxCell id="Y6a2tzBEzzJLtpBsia-G-55" style="edgeStyle=orthogonalEdgeStyle;rounded=0;orthogonalLoop=1;jettySize=auto;html=1;exitX=1;exitY=0.5;exitDx=0;exitDy=0;entryX=1;entryY=0.5;entryDx=0;entryDy=0;" parent="HGIbafyIikdIQnF0ROzi-1" source="Y6a2tzBEzzJLtpBsia-G-50" target="Y6a2tzBEzzJLtpBsia-G-52" edge="1">
          <mxGeometry x="70" y="-134" as="geometry" />
        </mxCell>
        <mxCell id="Y6a2tzBEzzJLtpBsia-G-56" value="" style="group;fillColor=#60a917;strokeColor=#2D7600;fontColor=#ffffff;" parent="HGIbafyIikdIQnF0ROzi-1" vertex="1" connectable="0">
          <mxGeometry x="550" y="80" width="100" height="40" as="geometry" />
        </mxCell>
        <mxCell id="Y6a2tzBEzzJLtpBsia-G-57" value="&lt;font style=&quot;font-size: 14px&quot;&gt;3&lt;/font&gt;" style="rounded=0;whiteSpace=wrap;html=1;direction=west;fillColor=#60a917;strokeColor=#2D7600;fontColor=#ffffff;" parent="Y6a2tzBEzzJLtpBsia-G-56" vertex="1">
          <mxGeometry width="81.82222222222222" height="40" as="geometry" />
        </mxCell>
        <mxCell id="Y6a2tzBEzzJLtpBsia-G-58" value="" style="rounded=0;whiteSpace=wrap;html=1;fillColor=#bac8d3;strokeColor=#23445d;" parent="Y6a2tzBEzzJLtpBsia-G-56" vertex="1">
          <mxGeometry x="81.81818181818183" width="18.181818181818183" height="40" as="geometry" />
        </mxCell>
        <mxCell id="Y6a2tzBEzzJLtpBsia-G-59" style="edgeStyle=orthogonalEdgeStyle;rounded=0;orthogonalLoop=1;jettySize=auto;html=1;exitX=1;exitY=0.5;exitDx=0;exitDy=0;entryX=1;entryY=0.5;entryDx=0;entryDy=0;" parent="HGIbafyIikdIQnF0ROzi-1" source="Y6a2tzBEzzJLtpBsia-G-53" target="Y6a2tzBEzzJLtpBsia-G-57" edge="1">
          <mxGeometry x="70" y="-134" as="geometry" />
        </mxCell>
        <mxCell id="Y6a2tzBEzzJLtpBsia-G-60" style="edgeStyle=orthogonalEdgeStyle;rounded=0;orthogonalLoop=1;jettySize=auto;html=1;exitX=1;exitY=0.5;exitDx=0;exitDy=0;" parent="HGIbafyIikdIQnF0ROzi-1" source="Y6a2tzBEzzJLtpBsia-G-58" edge="1">
          <mxGeometry x="70" y="-134" as="geometry">
            <mxPoint x="680" y="100" as="targetPoint" />
          </mxGeometry>
        </mxCell>
        <mxCell id="Y6a2tzBEzzJLtpBsia-G-71" value="NULL" style="text;html=1;align=center;verticalAlign=middle;resizable=0;points=[];autosize=1;strokeColor=none;" parent="HGIbafyIikdIQnF0ROzi-1" vertex="1">
          <mxGeometry x="690" y="90" width="50" height="20" as="geometry" />
        </mxCell>
        <mxCell id="Y6a2tzBEzzJLtpBsia-G-72" value="&lt;font style=&quot;font-size: 14px&quot;&gt;如何在2前面插入一个元素为100的节点？&lt;/font&gt;" style="text;html=1;strokeColor=none;fillColor=none;align=left;verticalAlign=middle;whiteSpace=wrap;rounded=0;" parent="HGIbafyIikdIQnF0ROzi-1" vertex="1">
          <mxGeometry x="40" y="-150" width="270" height="40" as="geometry" />
        </mxCell>
        <mxCell id="Y6a2tzBEzzJLtpBsia-G-73" value="" style="group;fillColor=#60a917;strokeColor=#2D7600;fontColor=#ffffff;" parent="HGIbafyIikdIQnF0ROzi-1" vertex="1" connectable="0">
          <mxGeometry x="460" y="190" width="100" height="40" as="geometry" />
        </mxCell>
        <mxCell id="Y6a2tzBEzzJLtpBsia-G-74" value="&lt;span style=&quot;font-size: 14px&quot;&gt;2(新节点)&lt;/span&gt;" style="rounded=0;whiteSpace=wrap;html=1;direction=west;fillColor=#60a917;strokeColor=#2D7600;fontColor=#ffffff;" parent="Y6a2tzBEzzJLtpBsia-G-73" vertex="1">
          <mxGeometry width="81.82222222222222" height="40" as="geometry" />
        </mxCell>
        <mxCell id="Y6a2tzBEzzJLtpBsia-G-75" value="" style="rounded=0;whiteSpace=wrap;html=1;fillColor=#bac8d3;strokeColor=#23445d;" parent="Y6a2tzBEzzJLtpBsia-G-73" vertex="1">
          <mxGeometry x="81.81818181818183" width="18.181818181818183" height="40" as="geometry" />
        </mxCell>
        <mxCell id="Y6a2tzBEzzJLtpBsia-G-84" value="" style="endArrow=classic;html=1;exitX=0.5;exitY=1;exitDx=0;exitDy=0;entryX=0.597;entryY=1.038;entryDx=0;entryDy=0;entryPerimeter=0;" parent="HGIbafyIikdIQnF0ROzi-1" source="Y6a2tzBEzzJLtpBsia-G-53" target="Y6a2tzBEzzJLtpBsia-G-74" edge="1">
          <mxGeometry width="50" height="50" relative="1" as="geometry">
            <mxPoint x="400" y="230" as="sourcePoint" />
            <mxPoint x="450" y="180" as="targetPoint" />
          </mxGeometry>
        </mxCell>
        <mxCell id="Y6a2tzBEzzJLtpBsia-G-85" value="" style="endArrow=classic;html=1;exitX=1;exitY=0.5;exitDx=0;exitDy=0;" parent="HGIbafyIikdIQnF0ROzi-1" source="Y6a2tzBEzzJLtpBsia-G-75" edge="1">
          <mxGeometry width="50" height="50" relative="1" as="geometry">
            <mxPoint x="570" y="250" as="sourcePoint" />
            <mxPoint x="600" y="120" as="targetPoint" />
          </mxGeometry>
        </mxCell>
        <mxCell id="Y6a2tzBEzzJLtpBsia-G-86" value="" style="verticalLabelPosition=bottom;verticalAlign=top;html=1;shape=mxgraph.basic.x;strokeColor=#44AB44;fillColor=#FF0000;gradientColor=none;" parent="HGIbafyIikdIQnF0ROzi-1" vertex="1">
          <mxGeometry x="510" y="85" width="20" height="30" as="geometry" />
        </mxCell>
        <mxCell id="Y6a2tzBEzzJLtpBsia-G-92" value="&amp;nbsp; &amp;nbsp; &amp;nbsp; &amp;nbsp; 先在2后面插入一个节点，并&amp;nbsp; &amp;nbsp; &amp;nbsp; &amp;nbsp; &amp;nbsp; &amp;nbsp; &amp;nbsp; 且数据设为2，然后用100覆&amp;nbsp; &amp;nbsp; &amp;nbsp; &amp;nbsp; &amp;nbsp; &amp;nbsp; &amp;nbsp; 盖掉原来的2" style="whiteSpace=wrap;html=1;shape=mxgraph.basic.oval_callout;strokeColor=#2D7600;fillColor=#60a917;fontColor=#ffffff;align=center;" parent="HGIbafyIikdIQnF0ROzi-1" vertex="1">
          <mxGeometry x="420" y="-10" width="200" height="80" as="geometry" />
        </mxCell>
        <mxCell id="Y6a2tzBEzzJLtpBsia-G-94" value="100" style="ellipse;whiteSpace=wrap;html=1;strokeColor=#006EAF;fillColor=#1ba1e2;fontColor=#ffffff;" parent="HGIbafyIikdIQnF0ROzi-1" vertex="1">
          <mxGeometry x="400" y="85" width="60" height="30" as="geometry" />
        </mxCell>
        <mxCell id="Y6a2tzBEzzJLtpBsia-G-95" value="&lt;span style=&quot;color: rgba(0 , 0 , 0 , 0) ; font-family: monospace ; font-size: 0px&quot;&gt;%3CmxGraphModel%3E%3Croot%3E%3CmxCell%20id%3D%220%22%2F%3E%3CmxCell%20id%3D%221%22%20parent%3D%220%22%2F%3E%3CmxCell%20id%3D%222%22%20value%3D%22%26lt%3Bfont%20style%3D%26quot%3Bfont-size%3A%2015px%26quot%3B%26gt%3BL%26lt%3B%2Ffont%26gt%3B%22%20style%3D%22text%3Bhtml%3D1%3BstrokeColor%3Dnone%3BfillColor%3Dnone%3Balign%3Dcenter%3BverticalAlign%3Dmiddle%3BwhiteSpace%3Dwrap%3Brounded%3D0%3B%22%20vertex%3D%221%22%20parent%3D%221%22%3E%3CmxGeometry%20x%3D%2210%22%20y%3D%2290%22%20width%3D%2230%22%20height%3D%2220%22%20as%3D%22geometry%22%2F%3E%3C%2FmxCell%3E%3CmxCell%20id%3D%223%22%20value%3D%22%22%20style%3D%22endArrow%3Dclassic%3Bhtml%3D1%3BexitX%3D1%3BexitY%3D0.5%3BexitDx%3D0%3BexitDy%3D0%3BentryX%3D1%3BentryY%3D0.5%3BentryDx%3D0%3BentryDy%3D0%3B%22%20edge%3D%221%22%20source%3D%222%22%20parent%3D%221%22%3E%3CmxGeometry%20x%3D%2210%22%20y%3D%22-134%22%20width%3D%2250%22%20height%3D%2250%22%20as%3D%22geometry%22%3E%3CmxPoint%20x%3D%22270%22%20y%3D%22210%22%20as%3D%22sourcePoint%22%2F%3E%3CmxPoint%20x%3D%2280%22%20y%3D%22100%22%20as%3D%22targetPoint%22%2F%3E%3C%2FmxGeometry%3E%3C%2FmxCell%3E%3CmxCell%20id%3D%224%22%20value%3D%22%22%20style%3D%22group%3BfillColor%3D%23647687%3BstrokeColor%3D%23314354%3BfontColor%3D%23ffffff%3B%22%20vertex%3D%221%22%20connectable%3D%220%22%20parent%3D%221%22%3E%3CmxGeometry%20x%3D%2280%22%20y%3D%2280%22%20width%3D%22100%22%20height%3D%2240%22%20as%3D%22geometry%22%2F%3E%3C%2FmxCell%3E%3CmxCell%20id%3D%225%22%20value%3D%22%26lt%3Bfont%20style%3D%26quot%3Bfont-size%3A%2014px%26quot%3B%26gt%3B%E5%A4%B4%E8%8A%82%E7%82%B9%26lt%3B%2Ffont%26gt%3B%22%20style%3D%22rounded%3D0%3BwhiteSpace%3Dwrap%3Bhtml%3D1%3Bdirection%3Dwest%3BfillColor%3D%236a00ff%3BstrokeColor%3D%233700CC%3BfontColor%3D%23ffffff%3B%22%20vertex%3D%221%22%20parent%3D%224%22%3E%3CmxGeometry%20width%3D%2281.82222222222222%22%20height%3D%2240%22%20as%3D%22geometry%22%2F%3E%3C%2FmxCell%3E%3CmxCell%20id%3D%226%22%20value%3D%22%22%20style%3D%22rounded%3D0%3BwhiteSpace%3Dwrap%3Bhtml%3D1%3BfillColor%3D%23bac8d3%3BstrokeColor%3D%2323445d%3B%22%20vertex%3D%221%22%20parent%3D%224%22%3E%3CmxGeometry%20x%3D%2281.81818181818183%22%20width%3D%2218.181818181818183%22%20height%3D%2240%22%20as%3D%22geometry%22%2F%3E%3C%2FmxCell%3E%3CmxCell%20id%3D%227%22%20value%3D%22%22%20style%3D%22group%3BfillColor%3D%2360a917%3BstrokeColor%3D%232D7600%3BfontColor%3D%23ffffff%3B%22%20vertex%3D%221%22%20connectable%3D%220%22%20parent%3D%221%22%3E%3CmxGeometry%20x%3D%22240%22%20y%3D%2280%22%20width%3D%22100%22%20height%3D%2240%22%20as%3D%22geometry%22%2F%3E%3C%2FmxCell%3E%3CmxCell%20id%3D%228%22%20value%3D%22%26lt%3Bfont%20style%3D%26quot%3Bfont-size%3A%2014px%26quot%3B%26gt%3B1%26lt%3B%2Ffont%26gt%3B%22%20style%3D%22rounded%3D0%3BwhiteSpace%3Dwrap%3Bhtml%3D1%3Bdirection%3Dwest%3BfillColor%3D%2360a917%3BstrokeColor%3D%232D7600%3BfontColor%3D%23ffffff%3B%22%20vertex%3D%221%22%20parent%3D%227%22%3E%3CmxGeometry%20width%3D%2281.82222222222222%22%20height%3D%2240%22%20as%3D%22geometry%22%2F%3E%3C%2FmxCell%3E%3CmxCell%20id%3D%229%22%20value%3D%22%22%20style%3D%22rounded%3D0%3BwhiteSpace%3Dwrap%3Bhtml%3D1%3BfillColor%3D%23bac8d3%3BstrokeColor%3D%2323445d%3B%22%20vertex%3D%221%22%20parent%3D%227%22%3E%3CmxGeometry%20x%3D%2281.81818181818183%22%20width%3D%2218.181818181818183%22%20height%3D%2240%22%20as%3D%22geometry%22%2F%3E%3C%2FmxCell%3E%3CmxCell%20id%3D%2210%22%20value%3D%22%22%20style%3D%22group%3BfillColor%3D%2360a917%3BstrokeColor%3D%232D7600%3BfontColor%3D%23ffffff%3B%22%20vertex%3D%221%22%20connectable%3D%220%22%20parent%3D%221%22%3E%3CmxGeometry%20x%3D%22390%22%20y%3D%2280%22%20width%3D%22100%22%20height%3D%2240%22%20as%3D%22geometry%22%2F%3E%3C%2FmxCell%3E%3CmxCell%20id%3D%2211%22%20value%3D%22%26lt%3Bfont%20style%3D%26quot%3Bfont-size%3A%2014px%26quot%3B%26gt%3B2%26lt%3B%2Ffont%26gt%3B%22%20style%3D%22rounded%3D0%3BwhiteSpace%3Dwrap%3Bhtml%3D1%3Bdirection%3Dwest%3BfillColor%3D%2360a917%3BstrokeColor%3D%232D7600%3BfontColor%3D%23ffffff%3B%22%20vertex%3D%221%22%20parent%3D%2210%22%3E%3CmxGeometry%20width%3D%2281.82222222222222%22%20height%3D%2240%22%20as%3D%22geometry%22%2F%3E%3C%2FmxCell%3E%3CmxCell%20id%3D%2212%22%20value%3D%22%22%20style%3D%22rounded%3D0%3BwhiteSpace%3Dwrap%3Bhtml%3D1%3BfillColor%3D%23bac8d3%3BstrokeColor%3D%2323445d%3B%22%20vertex%3D%221%22%20parent%3D%2210%22%3E%3CmxGeometry%20x%3D%2281.81818181818183%22%20width%3D%2218.181818181818183%22%20height%3D%2240%22%20as%3D%22geometry%22%2F%3E%3C%2FmxCell%3E%3CmxCell%20id%3D%2213%22%20style%3D%22edgeStyle%3DorthogonalEdgeStyle%3Brounded%3D0%3BorthogonalLoop%3D1%3BjettySize%3Dauto%3Bhtml%3D1%3BexitX%3D1%3BexitY%3D0.5%3BexitDx%3D0%3BexitDy%3D0%3BentryX%3D1%3BentryY%3D0.5%3BentryDx%3D0%3BentryDy%3D0%3B%22%20edge%3D%221%22%20source%3D%226%22%20target%3D%228%22%20parent%3D%221%22%3E%3CmxGeometry%20x%3D%2270%22%20y%3D%22-134%22%20as%3D%22geometry%22%2F%3E%3C%2FmxCell%3E%3CmxCell%20id%3D%2214%22%20style%3D%22edgeStyle%3DorthogonalEdgeStyle%3Brounded%3D0%3BorthogonalLoop%3D1%3BjettySize%3Dauto%3Bhtml%3D1%3BexitX%3D1%3BexitY%3D0.5%3BexitDx%3D0%3BexitDy%3D0%3BentryX%3D1%3BentryY%3D0.5%3BentryDx%3D0%3BentryDy%3D0%3B%22%20edge%3D%221%22%20source%3D%229%22%20target%3D%2211%22%20parent%3D%221%22%3E%3CmxGeometry%20x%3D%2270%22%20y%3D%22-134%22%20as%3D%22geometry%22%2F%3E%3C%2FmxCell%3E%3CmxCell%20id%3D%2215%22%20value%3D%22%22%20style%3D%22group%3BfillColor%3D%2360a917%3BstrokeColor%3D%232D7600%3BfontColor%3D%23ffffff%3B%22%20vertex%3D%221%22%20connectable%3D%220%22%20parent%3D%221%22%3E%3CmxGeometry%20x%3D%22550%22%20y%3D%2280%22%20width%3D%22100%22%20height%3D%2240%22%20as%3D%22geometry%22%2F%3E%3C%2FmxCell%3E%3CmxCell%20id%3D%2216%22%20value%3D%22%26lt%3Bfont%20style%3D%26quot%3Bfont-size%3A%2014px%26quot%3B%26gt%3B3%26lt%3B%2Ffont%26gt%3B%22%20style%3D%22rounded%3D0%3BwhiteSpace%3Dwrap%3Bhtml%3D1%3Bdirection%3Dwest%3BfillColor%3D%2360a917%3BstrokeColor%3D%232D7600%3BfontColor%3D%23ffffff%3B%22%20vertex%3D%221%22%20parent%3D%2215%22%3E%3CmxGeometry%20width%3D%2281.82222222222222%22%20height%3D%2240%22%20as%3D%22geometry%22%2F%3E%3C%2FmxCell%3E%3CmxCell%20id%3D%2217%22%20value%3D%22%22%20style%3D%22rounded%3D0%3BwhiteSpace%3Dwrap%3Bhtml%3D1%3BfillColor%3D%23bac8d3%3BstrokeColor%3D%2323445d%3B%22%20vertex%3D%221%22%20parent%3D%2215%22%3E%3CmxGeometry%20x%3D%2281.81818181818183%22%20width%3D%2218.181818181818183%22%20height%3D%2240%22%20as%3D%22geometry%22%2F%3E%3C%2FmxCell%3E%3CmxCell%20id%3D%2218%22%20style%3D%22edgeStyle%3DorthogonalEdgeStyle%3Brounded%3D0%3BorthogonalLoop%3D1%3BjettySize%3Dauto%3Bhtml%3D1%3BexitX%3D1%3BexitY%3D0.5%3BexitDx%3D0%3BexitDy%3D0%3BentryX%3D1%3BentryY%3D0.5%3BentryDx%3D0%3BentryDy%3D0%3B%22%20edge%3D%221%22%20source%3D%2212%22%20target%3D%2216%22%20parent%3D%221%22%3E%3CmxGeometry%20x%3D%2270%22%20y%3D%22-134%22%20as%3D%22geometry%22%2F%3E%3C%2FmxCell%3E%3CmxCell%20id%3D%2219%22%20style%3D%22edgeStyle%3DorthogonalEdgeStyle%3Brounded%3D0%3BorthogonalLoop%3D1%3BjettySize%3Dauto%3Bhtml%3D1%3BexitX%3D1%3BexitY%3D0.5%3BexitDx%3D0%3BexitDy%3D0%3B%22%20edge%3D%221%22%20source%3D%2217%22%20parent%3D%221%22%3E%3CmxGeometry%20x%3D%2270%22%20y%3D%22-134%22%20as%3D%22geometry%22%3E%3CmxPoint%20x%3D%22680%22%20y%3D%22100%22%20as%3D%22targetPoint%22%2F%3E%3C%2FmxGeometry%3E%3C%2FmxCell%3E%3CmxCell%20id%3D%2220%22%20value%3D%22NULL%22%20style%3D%22text%3Bhtml%3D1%3Balign%3Dcenter%3BverticalAlign%3Dmiddle%3Bresizable%3D0%3Bpoints%3D%5B%5D%3Bautosize%3D1%3BstrokeColor%3Dnone%3B%22%20vertex%3D%221%22%20parent%3D%221%22%3E%3CmxGeometry%20x%3D%22690%22%20y%3D%2290%22%20width%3D%2250%22%20height%3D%2220%22%20as%3D%22geometry%22%2F%3E%3C%2FmxCell%3E%3CmxCell%20id%3D%2221%22%20value%3D%22%22%20style%3D%22verticalLabelPosition%3Dbottom%3BverticalAlign%3Dtop%3Bhtml%3D1%3Bshape%3Dmxgraph.basic.x%3BstrokeColor%3D%2344AB44%3BfillColor%3D%23FF0000%3BgradientColor%3Dnone%3B%22%20vertex%3D%221%22%20parent%3D%221%22%3E%3CmxGeometry%20x%3D%22510%22%20y%3D%2285%22%20width%3D%2220%22%20height%3D%2230%22%20as%3D%22geometry%22%2F%3E%3C%2FmxCell%3E%3C%2Froot%3E%3C%2FmxGraphModel%3E&lt;/span&gt;" style="text;html=1;align=center;verticalAlign=middle;resizable=0;points=[];autosize=1;strokeColor=none;" parent="HGIbafyIikdIQnF0ROzi-1" vertex="1">
          <mxGeometry x="80" y="-90" width="20" height="20" as="geometry" />
        </mxCell>
        <mxCell id="Y6a2tzBEzzJLtpBsia-G-96" value="&lt;font style=&quot;font-size: 15px&quot;&gt;L&lt;/font&gt;" style="text;html=1;strokeColor=none;fillColor=none;align=center;verticalAlign=middle;whiteSpace=wrap;rounded=0;" parent="HGIbafyIikdIQnF0ROzi-1" vertex="1">
          <mxGeometry x="10" y="-56" width="30" height="20" as="geometry" />
        </mxCell>
        <mxCell id="Y6a2tzBEzzJLtpBsia-G-97" value="" style="endArrow=classic;html=1;exitX=1;exitY=0.5;exitDx=0;exitDy=0;entryX=1;entryY=0.5;entryDx=0;entryDy=0;" parent="HGIbafyIikdIQnF0ROzi-1" source="Y6a2tzBEzzJLtpBsia-G-96" edge="1">
          <mxGeometry x="10" y="-280" width="50" height="50" as="geometry">
            <mxPoint x="270" y="64" as="sourcePoint" />
            <mxPoint x="80" y="-46" as="targetPoint" />
          </mxGeometry>
        </mxCell>
        <mxCell id="Y6a2tzBEzzJLtpBsia-G-98" value="" style="group;fillColor=#647687;strokeColor=#314354;fontColor=#ffffff;" parent="HGIbafyIikdIQnF0ROzi-1" vertex="1" connectable="0">
          <mxGeometry x="80" y="-66" width="100" height="40" as="geometry" />
        </mxCell>
        <mxCell id="Y6a2tzBEzzJLtpBsia-G-99" value="&lt;font style=&quot;font-size: 14px&quot;&gt;头节点&lt;/font&gt;" style="rounded=0;whiteSpace=wrap;html=1;direction=west;fillColor=#6a00ff;strokeColor=#3700CC;fontColor=#ffffff;" parent="Y6a2tzBEzzJLtpBsia-G-98" vertex="1">
          <mxGeometry width="81.82222222222222" height="40" as="geometry" />
        </mxCell>
        <mxCell id="Y6a2tzBEzzJLtpBsia-G-100" value="" style="rounded=0;whiteSpace=wrap;html=1;fillColor=#bac8d3;strokeColor=#23445d;" parent="Y6a2tzBEzzJLtpBsia-G-98" vertex="1">
          <mxGeometry x="81.81818181818183" width="18.181818181818183" height="40" as="geometry" />
        </mxCell>
        <mxCell id="Y6a2tzBEzzJLtpBsia-G-101" value="" style="group;fillColor=#60a917;strokeColor=#2D7600;fontColor=#ffffff;" parent="HGIbafyIikdIQnF0ROzi-1" vertex="1" connectable="0">
          <mxGeometry x="240" y="-66" width="100" height="40" as="geometry" />
        </mxCell>
        <mxCell id="Y6a2tzBEzzJLtpBsia-G-102" value="&lt;font style=&quot;font-size: 14px&quot;&gt;1&lt;/font&gt;" style="rounded=0;whiteSpace=wrap;html=1;direction=west;fillColor=#60a917;strokeColor=#2D7600;fontColor=#ffffff;" parent="Y6a2tzBEzzJLtpBsia-G-101" vertex="1">
          <mxGeometry width="81.82222222222222" height="40" as="geometry" />
        </mxCell>
        <mxCell id="Y6a2tzBEzzJLtpBsia-G-103" value="" style="rounded=0;whiteSpace=wrap;html=1;fillColor=#bac8d3;strokeColor=#23445d;" parent="Y6a2tzBEzzJLtpBsia-G-101" vertex="1">
          <mxGeometry x="81.81818181818183" width="18.181818181818183" height="40" as="geometry" />
        </mxCell>
        <mxCell id="Y6a2tzBEzzJLtpBsia-G-104" value="" style="group;fillColor=#60a917;strokeColor=#2D7600;fontColor=#ffffff;" parent="HGIbafyIikdIQnF0ROzi-1" vertex="1" connectable="0">
          <mxGeometry x="390" y="-66" width="100" height="40" as="geometry" />
        </mxCell>
        <mxCell id="Y6a2tzBEzzJLtpBsia-G-105" value="&lt;font style=&quot;font-size: 14px&quot;&gt;2&lt;/font&gt;" style="rounded=0;whiteSpace=wrap;html=1;direction=west;fillColor=#60a917;strokeColor=#2D7600;fontColor=#ffffff;" parent="Y6a2tzBEzzJLtpBsia-G-104" vertex="1">
          <mxGeometry width="81.82222222222222" height="40" as="geometry" />
        </mxCell>
        <mxCell id="Y6a2tzBEzzJLtpBsia-G-106" value="" style="rounded=0;whiteSpace=wrap;html=1;fillColor=#bac8d3;strokeColor=#23445d;" parent="Y6a2tzBEzzJLtpBsia-G-104" vertex="1">
          <mxGeometry x="81.81818181818183" width="18.181818181818183" height="40" as="geometry" />
        </mxCell>
        <mxCell id="Y6a2tzBEzzJLtpBsia-G-107" style="edgeStyle=orthogonalEdgeStyle;rounded=0;orthogonalLoop=1;jettySize=auto;html=1;exitX=1;exitY=0.5;exitDx=0;exitDy=0;entryX=1;entryY=0.5;entryDx=0;entryDy=0;" parent="HGIbafyIikdIQnF0ROzi-1" source="Y6a2tzBEzzJLtpBsia-G-100" target="Y6a2tzBEzzJLtpBsia-G-102" edge="1">
          <mxGeometry x="70" y="-280" as="geometry" />
        </mxCell>
        <mxCell id="Y6a2tzBEzzJLtpBsia-G-108" style="edgeStyle=orthogonalEdgeStyle;rounded=0;orthogonalLoop=1;jettySize=auto;html=1;exitX=1;exitY=0.5;exitDx=0;exitDy=0;entryX=1;entryY=0.5;entryDx=0;entryDy=0;" parent="HGIbafyIikdIQnF0ROzi-1" source="Y6a2tzBEzzJLtpBsia-G-103" target="Y6a2tzBEzzJLtpBsia-G-105" edge="1">
          <mxGeometry x="70" y="-280" as="geometry" />
        </mxCell>
        <mxCell id="Y6a2tzBEzzJLtpBsia-G-109" value="" style="group;fillColor=#60a917;strokeColor=#2D7600;fontColor=#ffffff;" parent="HGIbafyIikdIQnF0ROzi-1" vertex="1" connectable="0">
          <mxGeometry x="550" y="-66" width="100" height="40" as="geometry" />
        </mxCell>
        <mxCell id="Y6a2tzBEzzJLtpBsia-G-110" value="&lt;font style=&quot;font-size: 14px&quot;&gt;3&lt;/font&gt;" style="rounded=0;whiteSpace=wrap;html=1;direction=west;fillColor=#60a917;strokeColor=#2D7600;fontColor=#ffffff;" parent="Y6a2tzBEzzJLtpBsia-G-109" vertex="1">
          <mxGeometry width="81.82222222222222" height="40" as="geometry" />
        </mxCell>
        <mxCell id="Y6a2tzBEzzJLtpBsia-G-111" value="" style="rounded=0;whiteSpace=wrap;html=1;fillColor=#bac8d3;strokeColor=#23445d;" parent="Y6a2tzBEzzJLtpBsia-G-109" vertex="1">
          <mxGeometry x="81.81818181818183" width="18.181818181818183" height="40" as="geometry" />
        </mxCell>
        <mxCell id="Y6a2tzBEzzJLtpBsia-G-112" style="edgeStyle=orthogonalEdgeStyle;rounded=0;orthogonalLoop=1;jettySize=auto;html=1;exitX=1;exitY=0.5;exitDx=0;exitDy=0;entryX=1;entryY=0.5;entryDx=0;entryDy=0;" parent="HGIbafyIikdIQnF0ROzi-1" source="Y6a2tzBEzzJLtpBsia-G-106" target="Y6a2tzBEzzJLtpBsia-G-110" edge="1">
          <mxGeometry x="70" y="-280" as="geometry" />
        </mxCell>
        <mxCell id="Y6a2tzBEzzJLtpBsia-G-113" style="edgeStyle=orthogonalEdgeStyle;rounded=0;orthogonalLoop=1;jettySize=auto;html=1;exitX=1;exitY=0.5;exitDx=0;exitDy=0;" parent="HGIbafyIikdIQnF0ROzi-1" source="Y6a2tzBEzzJLtpBsia-G-111" edge="1">
          <mxGeometry x="70" y="-280" as="geometry">
            <mxPoint x="680" y="-46" as="targetPoint" />
          </mxGeometry>
        </mxCell>
        <mxCell id="Y6a2tzBEzzJLtpBsia-G-114" value="NULL" style="text;html=1;align=center;verticalAlign=middle;resizable=0;points=[];autosize=1;strokeColor=none;" parent="HGIbafyIikdIQnF0ROzi-1" vertex="1">
          <mxGeometry x="690" y="-56" width="50" height="20" as="geometry" />
        </mxCell>
      </root>
    </mxGraphModel>
  </diagram>
  <diagram id="QzlnvGSZTdmZKzcM3c_H" name="Page-4">
    <mxGraphModel dx="782" dy="924" grid="0" gridSize="10" guides="1" tooltips="1" connect="1" arrows="1" fold="1" page="0" pageScale="1" pageWidth="827" pageHeight="1169" math="0" shadow="0">
      <root>
        <mxCell id="eWBIfWHkdhwSmMv5W5uU-0" />
        <mxCell id="eWBIfWHkdhwSmMv5W5uU-1" parent="eWBIfWHkdhwSmMv5W5uU-0" />
        <mxCell id="Fa_SpWF3yf8HMCXftZAc-0" value="" style="endArrow=classic;html=1;exitX=1;exitY=0.5;exitDx=0;exitDy=0;entryX=1;entryY=0.5;entryDx=0;entryDy=0;" edge="1" parent="eWBIfWHkdhwSmMv5W5uU-1">
          <mxGeometry x="75" y="-134" width="50" height="50" as="geometry">
            <mxPoint x="105" y="100" as="sourcePoint" />
            <mxPoint x="145" y="100" as="targetPoint" />
          </mxGeometry>
        </mxCell>
        <mxCell id="Fa_SpWF3yf8HMCXftZAc-1" value="" style="group;fillColor=#647687;strokeColor=#314354;fontColor=#ffffff;" vertex="1" connectable="0" parent="eWBIfWHkdhwSmMv5W5uU-1">
          <mxGeometry x="145" y="80" width="100" height="40" as="geometry" />
        </mxCell>
        <mxCell id="Fa_SpWF3yf8HMCXftZAc-2" value="&lt;font style=&quot;font-size: 14px&quot;&gt;头节点&lt;/font&gt;" style="rounded=0;whiteSpace=wrap;html=1;direction=west;fillColor=#6a00ff;strokeColor=#3700CC;fontColor=#ffffff;" vertex="1" parent="Fa_SpWF3yf8HMCXftZAc-1">
          <mxGeometry width="81.82222222222222" height="40" as="geometry" />
        </mxCell>
        <mxCell id="Fa_SpWF3yf8HMCXftZAc-3" value="" style="rounded=0;whiteSpace=wrap;html=1;fillColor=#bac8d3;strokeColor=#23445d;" vertex="1" parent="Fa_SpWF3yf8HMCXftZAc-1">
          <mxGeometry x="81.81818181818183" width="18.181818181818183" height="40" as="geometry" />
        </mxCell>
        <mxCell id="Fa_SpWF3yf8HMCXftZAc-4" value="" style="group;fillColor=#60a917;strokeColor=#2D7600;fontColor=#ffffff;" vertex="1" connectable="0" parent="eWBIfWHkdhwSmMv5W5uU-1">
          <mxGeometry x="305" y="80" width="100" height="40" as="geometry" />
        </mxCell>
        <mxCell id="Fa_SpWF3yf8HMCXftZAc-5" value="&lt;font style=&quot;font-size: 14px&quot;&gt;1&lt;/font&gt;" style="rounded=0;whiteSpace=wrap;html=1;direction=west;fillColor=#60a917;strokeColor=#2D7600;fontColor=#ffffff;" vertex="1" parent="Fa_SpWF3yf8HMCXftZAc-4">
          <mxGeometry width="81.82222222222222" height="40" as="geometry" />
        </mxCell>
        <mxCell id="Fa_SpWF3yf8HMCXftZAc-6" value="" style="rounded=0;whiteSpace=wrap;html=1;fillColor=#bac8d3;strokeColor=#23445d;" vertex="1" parent="Fa_SpWF3yf8HMCXftZAc-4">
          <mxGeometry x="81.81818181818183" width="18.181818181818183" height="40" as="geometry" />
        </mxCell>
        <mxCell id="Fa_SpWF3yf8HMCXftZAc-7" value="" style="group;fillColor=#60a917;strokeColor=#2D7600;fontColor=#ffffff;" vertex="1" connectable="0" parent="eWBIfWHkdhwSmMv5W5uU-1">
          <mxGeometry x="455" y="80" width="100" height="40" as="geometry" />
        </mxCell>
        <mxCell id="Fa_SpWF3yf8HMCXftZAc-8" value="&lt;font style=&quot;font-size: 14px&quot;&gt;2&lt;/font&gt;" style="rounded=0;whiteSpace=wrap;html=1;direction=west;fillColor=#60a917;strokeColor=#2D7600;fontColor=#ffffff;" vertex="1" parent="Fa_SpWF3yf8HMCXftZAc-7">
          <mxGeometry width="81.82222222222222" height="40" as="geometry" />
        </mxCell>
        <mxCell id="Fa_SpWF3yf8HMCXftZAc-9" value="" style="rounded=0;whiteSpace=wrap;html=1;fillColor=#bac8d3;strokeColor=#23445d;" vertex="1" parent="Fa_SpWF3yf8HMCXftZAc-7">
          <mxGeometry x="81.81818181818183" width="18.181818181818183" height="40" as="geometry" />
        </mxCell>
        <mxCell id="Fa_SpWF3yf8HMCXftZAc-10" style="edgeStyle=orthogonalEdgeStyle;rounded=0;orthogonalLoop=1;jettySize=auto;html=1;exitX=1;exitY=0.5;exitDx=0;exitDy=0;entryX=1;entryY=0.5;entryDx=0;entryDy=0;" edge="1" parent="eWBIfWHkdhwSmMv5W5uU-1" source="Fa_SpWF3yf8HMCXftZAc-3" target="Fa_SpWF3yf8HMCXftZAc-5">
          <mxGeometry x="135" y="-134" as="geometry" />
        </mxCell>
        <mxCell id="Fa_SpWF3yf8HMCXftZAc-11" style="edgeStyle=orthogonalEdgeStyle;rounded=0;orthogonalLoop=1;jettySize=auto;html=1;exitX=1;exitY=0.5;exitDx=0;exitDy=0;entryX=1;entryY=0.5;entryDx=0;entryDy=0;" edge="1" parent="eWBIfWHkdhwSmMv5W5uU-1" source="Fa_SpWF3yf8HMCXftZAc-6" target="Fa_SpWF3yf8HMCXftZAc-8">
          <mxGeometry x="135" y="-134" as="geometry" />
        </mxCell>
        <mxCell id="Fa_SpWF3yf8HMCXftZAc-12" value="" style="group;fillColor=#60a917;strokeColor=#2D7600;fontColor=#ffffff;" vertex="1" connectable="0" parent="eWBIfWHkdhwSmMv5W5uU-1">
          <mxGeometry x="615" y="80" width="100" height="40" as="geometry" />
        </mxCell>
        <mxCell id="Fa_SpWF3yf8HMCXftZAc-13" value="&lt;font style=&quot;font-size: 14px&quot;&gt;3&lt;/font&gt;" style="rounded=0;whiteSpace=wrap;html=1;direction=west;fillColor=#60a917;strokeColor=#2D7600;fontColor=#ffffff;" vertex="1" parent="Fa_SpWF3yf8HMCXftZAc-12">
          <mxGeometry width="81.82222222222222" height="40" as="geometry" />
        </mxCell>
        <mxCell id="Fa_SpWF3yf8HMCXftZAc-14" value="" style="rounded=0;whiteSpace=wrap;html=1;fillColor=#bac8d3;strokeColor=#23445d;" vertex="1" parent="Fa_SpWF3yf8HMCXftZAc-12">
          <mxGeometry x="81.81818181818183" width="18.181818181818183" height="40" as="geometry" />
        </mxCell>
        <mxCell id="Fa_SpWF3yf8HMCXftZAc-15" style="edgeStyle=orthogonalEdgeStyle;rounded=0;orthogonalLoop=1;jettySize=auto;html=1;exitX=1;exitY=0.5;exitDx=0;exitDy=0;entryX=1;entryY=0.5;entryDx=0;entryDy=0;" edge="1" parent="eWBIfWHkdhwSmMv5W5uU-1" source="Fa_SpWF3yf8HMCXftZAc-9" target="Fa_SpWF3yf8HMCXftZAc-13">
          <mxGeometry x="135" y="-134" as="geometry" />
        </mxCell>
        <mxCell id="Fa_SpWF3yf8HMCXftZAc-16" style="edgeStyle=orthogonalEdgeStyle;rounded=0;orthogonalLoop=1;jettySize=auto;html=1;exitX=1;exitY=0.5;exitDx=0;exitDy=0;" edge="1" parent="eWBIfWHkdhwSmMv5W5uU-1" source="Fa_SpWF3yf8HMCXftZAc-14">
          <mxGeometry x="135" y="-134" as="geometry">
            <mxPoint x="745" y="100" as="targetPoint" />
          </mxGeometry>
        </mxCell>
        <mxCell id="Fa_SpWF3yf8HMCXftZAc-17" value="NULL" style="text;html=1;align=center;verticalAlign=middle;resizable=0;points=[];autosize=1;strokeColor=none;" vertex="1" parent="eWBIfWHkdhwSmMv5W5uU-1">
          <mxGeometry x="755" y="90" width="50" height="20" as="geometry" />
        </mxCell>
        <mxCell id="Fa_SpWF3yf8HMCXftZAc-18" value="" style="group;fillColor=#60a917;strokeColor=#2D7600;fontColor=#ffffff;" vertex="1" connectable="0" parent="eWBIfWHkdhwSmMv5W5uU-1">
          <mxGeometry x="525" y="190" width="100" height="40" as="geometry" />
        </mxCell>
        <mxCell id="Fa_SpWF3yf8HMCXftZAc-19" value="&lt;span style=&quot;font-size: 14px&quot;&gt;100(新增的节点)&lt;/span&gt;" style="rounded=0;whiteSpace=wrap;html=1;direction=west;fillColor=#60a917;strokeColor=#2D7600;fontColor=#ffffff;" vertex="1" parent="Fa_SpWF3yf8HMCXftZAc-18">
          <mxGeometry width="81.82222222222222" height="40" as="geometry" />
        </mxCell>
        <mxCell id="Fa_SpWF3yf8HMCXftZAc-20" value="" style="rounded=0;whiteSpace=wrap;html=1;fillColor=#bac8d3;strokeColor=#23445d;" vertex="1" parent="Fa_SpWF3yf8HMCXftZAc-18">
          <mxGeometry x="81.81818181818183" width="18.181818181818183" height="40" as="geometry" />
        </mxCell>
        <mxCell id="Fa_SpWF3yf8HMCXftZAc-21" value="" style="endArrow=classic;html=1;exitX=0.5;exitY=1;exitDx=0;exitDy=0;entryX=0.597;entryY=1.038;entryDx=0;entryDy=0;entryPerimeter=0;" edge="1" parent="eWBIfWHkdhwSmMv5W5uU-1" source="Fa_SpWF3yf8HMCXftZAc-9" target="Fa_SpWF3yf8HMCXftZAc-19">
          <mxGeometry width="50" height="50" relative="1" as="geometry">
            <mxPoint x="465" y="230" as="sourcePoint" />
            <mxPoint x="515" y="180" as="targetPoint" />
          </mxGeometry>
        </mxCell>
        <mxCell id="Fa_SpWF3yf8HMCXftZAc-62" value="后：p-&amp;gt;next = s;" style="edgeLabel;html=1;align=center;verticalAlign=middle;resizable=0;points=[];" vertex="1" connectable="0" parent="Fa_SpWF3yf8HMCXftZAc-21">
          <mxGeometry x="-0.3231" y="1" relative="1" as="geometry">
            <mxPoint as="offset" />
          </mxGeometry>
        </mxCell>
        <mxCell id="Fa_SpWF3yf8HMCXftZAc-22" value="" style="endArrow=classic;html=1;exitX=1;exitY=0.5;exitDx=0;exitDy=0;" edge="1" parent="eWBIfWHkdhwSmMv5W5uU-1" source="Fa_SpWF3yf8HMCXftZAc-20">
          <mxGeometry width="50" height="50" relative="1" as="geometry">
            <mxPoint x="635" y="250" as="sourcePoint" />
            <mxPoint x="665" y="120" as="targetPoint" />
          </mxGeometry>
        </mxCell>
        <mxCell id="Fa_SpWF3yf8HMCXftZAc-64" value="&lt;span style=&quot;font-size: 12px ; background-color: rgb(248 , 249 , 250)&quot;&gt;先：s-&amp;gt;next = p-&amp;gt;next;&lt;/span&gt;" style="edgeLabel;html=1;align=center;verticalAlign=middle;resizable=0;points=[];" vertex="1" connectable="0" parent="Fa_SpWF3yf8HMCXftZAc-22">
          <mxGeometry x="-0.2454" relative="1" as="geometry">
            <mxPoint x="15" y="-16" as="offset" />
          </mxGeometry>
        </mxCell>
        <mxCell id="Fa_SpWF3yf8HMCXftZAc-23" value="" style="verticalLabelPosition=bottom;verticalAlign=top;html=1;shape=mxgraph.basic.x;strokeColor=#44AB44;fillColor=#FF0000;gradientColor=none;" vertex="1" parent="eWBIfWHkdhwSmMv5W5uU-1">
          <mxGeometry x="575" y="85" width="20" height="30" as="geometry" />
        </mxCell>
        <mxCell id="Fa_SpWF3yf8HMCXftZAc-26" value="" style="endArrow=classic;html=1;exitX=1;exitY=0.5;exitDx=0;exitDy=0;entryX=1;entryY=0.5;entryDx=0;entryDy=0;" edge="1" parent="eWBIfWHkdhwSmMv5W5uU-1">
          <mxGeometry x="75" y="-280" width="50" height="50" as="geometry">
            <mxPoint x="105" y="-46" as="sourcePoint" />
            <mxPoint x="145" y="-46" as="targetPoint" />
          </mxGeometry>
        </mxCell>
        <mxCell id="Fa_SpWF3yf8HMCXftZAc-27" value="" style="group;fillColor=#647687;strokeColor=#314354;fontColor=#ffffff;" vertex="1" connectable="0" parent="eWBIfWHkdhwSmMv5W5uU-1">
          <mxGeometry x="145" y="-66" width="100" height="40" as="geometry" />
        </mxCell>
        <mxCell id="Fa_SpWF3yf8HMCXftZAc-28" value="&lt;font style=&quot;font-size: 14px&quot;&gt;头节点&lt;/font&gt;" style="rounded=0;whiteSpace=wrap;html=1;direction=west;fillColor=#6a00ff;strokeColor=#3700CC;fontColor=#ffffff;" vertex="1" parent="Fa_SpWF3yf8HMCXftZAc-27">
          <mxGeometry width="81.82222222222222" height="40" as="geometry" />
        </mxCell>
        <mxCell id="Fa_SpWF3yf8HMCXftZAc-29" value="" style="rounded=0;whiteSpace=wrap;html=1;fillColor=#bac8d3;strokeColor=#23445d;" vertex="1" parent="Fa_SpWF3yf8HMCXftZAc-27">
          <mxGeometry x="81.81818181818183" width="18.181818181818183" height="40" as="geometry" />
        </mxCell>
        <mxCell id="Fa_SpWF3yf8HMCXftZAc-30" value="" style="group;fillColor=#60a917;strokeColor=#2D7600;fontColor=#ffffff;" vertex="1" connectable="0" parent="eWBIfWHkdhwSmMv5W5uU-1">
          <mxGeometry x="305" y="-66" width="100" height="40" as="geometry" />
        </mxCell>
        <mxCell id="Fa_SpWF3yf8HMCXftZAc-31" value="&lt;font style=&quot;font-size: 14px&quot;&gt;1&lt;/font&gt;" style="rounded=0;whiteSpace=wrap;html=1;direction=west;fillColor=#60a917;strokeColor=#2D7600;fontColor=#ffffff;" vertex="1" parent="Fa_SpWF3yf8HMCXftZAc-30">
          <mxGeometry width="81.82222222222222" height="40" as="geometry" />
        </mxCell>
        <mxCell id="Fa_SpWF3yf8HMCXftZAc-32" value="" style="rounded=0;whiteSpace=wrap;html=1;fillColor=#bac8d3;strokeColor=#23445d;" vertex="1" parent="Fa_SpWF3yf8HMCXftZAc-30">
          <mxGeometry x="81.81818181818183" width="18.181818181818183" height="40" as="geometry" />
        </mxCell>
        <mxCell id="Fa_SpWF3yf8HMCXftZAc-33" value="" style="group;fillColor=#60a917;strokeColor=#2D7600;fontColor=#ffffff;" vertex="1" connectable="0" parent="eWBIfWHkdhwSmMv5W5uU-1">
          <mxGeometry x="455" y="-66" width="100" height="40" as="geometry" />
        </mxCell>
        <mxCell id="Fa_SpWF3yf8HMCXftZAc-34" value="&lt;font style=&quot;font-size: 14px&quot;&gt;2&lt;/font&gt;" style="rounded=0;whiteSpace=wrap;html=1;direction=west;fillColor=#60a917;strokeColor=#2D7600;fontColor=#ffffff;" vertex="1" parent="Fa_SpWF3yf8HMCXftZAc-33">
          <mxGeometry width="81.82222222222222" height="40" as="geometry" />
        </mxCell>
        <mxCell id="Fa_SpWF3yf8HMCXftZAc-35" value="" style="rounded=0;whiteSpace=wrap;html=1;fillColor=#bac8d3;strokeColor=#23445d;" vertex="1" parent="Fa_SpWF3yf8HMCXftZAc-33">
          <mxGeometry x="81.81818181818183" width="18.181818181818183" height="40" as="geometry" />
        </mxCell>
        <mxCell id="Fa_SpWF3yf8HMCXftZAc-36" style="edgeStyle=orthogonalEdgeStyle;rounded=0;orthogonalLoop=1;jettySize=auto;html=1;exitX=1;exitY=0.5;exitDx=0;exitDy=0;entryX=1;entryY=0.5;entryDx=0;entryDy=0;" edge="1" parent="eWBIfWHkdhwSmMv5W5uU-1" source="Fa_SpWF3yf8HMCXftZAc-29" target="Fa_SpWF3yf8HMCXftZAc-31">
          <mxGeometry x="135" y="-280" as="geometry" />
        </mxCell>
        <mxCell id="Fa_SpWF3yf8HMCXftZAc-37" style="edgeStyle=orthogonalEdgeStyle;rounded=0;orthogonalLoop=1;jettySize=auto;html=1;exitX=1;exitY=0.5;exitDx=0;exitDy=0;entryX=1;entryY=0.5;entryDx=0;entryDy=0;" edge="1" parent="eWBIfWHkdhwSmMv5W5uU-1" source="Fa_SpWF3yf8HMCXftZAc-32" target="Fa_SpWF3yf8HMCXftZAc-34">
          <mxGeometry x="135" y="-280" as="geometry" />
        </mxCell>
        <mxCell id="Fa_SpWF3yf8HMCXftZAc-38" value="" style="group;fillColor=#60a917;strokeColor=#2D7600;fontColor=#ffffff;" vertex="1" connectable="0" parent="eWBIfWHkdhwSmMv5W5uU-1">
          <mxGeometry x="615" y="-66" width="100" height="40" as="geometry" />
        </mxCell>
        <mxCell id="Fa_SpWF3yf8HMCXftZAc-39" value="&lt;font style=&quot;font-size: 14px&quot;&gt;3&lt;/font&gt;" style="rounded=0;whiteSpace=wrap;html=1;direction=west;fillColor=#60a917;strokeColor=#2D7600;fontColor=#ffffff;" vertex="1" parent="Fa_SpWF3yf8HMCXftZAc-38">
          <mxGeometry width="81.82222222222222" height="40" as="geometry" />
        </mxCell>
        <mxCell id="Fa_SpWF3yf8HMCXftZAc-40" value="" style="rounded=0;whiteSpace=wrap;html=1;fillColor=#bac8d3;strokeColor=#23445d;" vertex="1" parent="Fa_SpWF3yf8HMCXftZAc-38">
          <mxGeometry x="81.81818181818183" width="18.181818181818183" height="40" as="geometry" />
        </mxCell>
        <mxCell id="Fa_SpWF3yf8HMCXftZAc-41" style="edgeStyle=orthogonalEdgeStyle;rounded=0;orthogonalLoop=1;jettySize=auto;html=1;exitX=1;exitY=0.5;exitDx=0;exitDy=0;entryX=1;entryY=0.5;entryDx=0;entryDy=0;" edge="1" parent="eWBIfWHkdhwSmMv5W5uU-1" source="Fa_SpWF3yf8HMCXftZAc-35" target="Fa_SpWF3yf8HMCXftZAc-39">
          <mxGeometry x="135" y="-280" as="geometry" />
        </mxCell>
        <mxCell id="Fa_SpWF3yf8HMCXftZAc-42" style="edgeStyle=orthogonalEdgeStyle;rounded=0;orthogonalLoop=1;jettySize=auto;html=1;exitX=1;exitY=0.5;exitDx=0;exitDy=0;" edge="1" parent="eWBIfWHkdhwSmMv5W5uU-1" source="Fa_SpWF3yf8HMCXftZAc-40">
          <mxGeometry x="135" y="-280" as="geometry">
            <mxPoint x="745" y="-46" as="targetPoint" />
          </mxGeometry>
        </mxCell>
        <mxCell id="Fa_SpWF3yf8HMCXftZAc-43" value="NULL" style="text;html=1;align=center;verticalAlign=middle;resizable=0;points=[];autosize=1;strokeColor=none;" vertex="1" parent="eWBIfWHkdhwSmMv5W5uU-1">
          <mxGeometry x="755" y="-56" width="50" height="20" as="geometry" />
        </mxCell>
        <mxCell id="Fa_SpWF3yf8HMCXftZAc-45" style="edgeStyle=orthogonalEdgeStyle;rounded=0;orthogonalLoop=1;jettySize=auto;html=1;exitX=0.5;exitY=0;exitDx=0;exitDy=0;entryX=0.75;entryY=0;entryDx=0;entryDy=0;" edge="1" parent="eWBIfWHkdhwSmMv5W5uU-1" source="Fa_SpWF3yf8HMCXftZAc-44" target="Fa_SpWF3yf8HMCXftZAc-8">
          <mxGeometry relative="1" as="geometry" />
        </mxCell>
        <mxCell id="Fa_SpWF3yf8HMCXftZAc-44" value="&lt;font style=&quot;font-size: 14px&quot;&gt;p&lt;/font&gt;" style="text;html=1;strokeColor=none;fillColor=none;align=center;verticalAlign=middle;whiteSpace=wrap;rounded=0;" vertex="1" parent="eWBIfWHkdhwSmMv5W5uU-1">
          <mxGeometry x="455" y="160" width="40" height="20" as="geometry" />
        </mxCell>
        <mxCell id="Fa_SpWF3yf8HMCXftZAc-48" style="edgeStyle=orthogonalEdgeStyle;rounded=0;orthogonalLoop=1;jettySize=auto;html=1;exitX=0.5;exitY=0;exitDx=0;exitDy=0;entryX=0.5;entryY=0;entryDx=0;entryDy=0;" edge="1" parent="eWBIfWHkdhwSmMv5W5uU-1" source="Fa_SpWF3yf8HMCXftZAc-46" target="Fa_SpWF3yf8HMCXftZAc-19">
          <mxGeometry relative="1" as="geometry" />
        </mxCell>
        <mxCell id="Fa_SpWF3yf8HMCXftZAc-46" value="&lt;font style=&quot;font-size: 14px&quot;&gt;s&lt;/font&gt;" style="text;html=1;strokeColor=none;fillColor=none;align=center;verticalAlign=middle;whiteSpace=wrap;rounded=0;" vertex="1" parent="eWBIfWHkdhwSmMv5W5uU-1">
          <mxGeometry x="545" y="270" width="40" height="20" as="geometry" />
        </mxCell>
        <mxCell id="Fa_SpWF3yf8HMCXftZAc-66" value="&lt;font color=&quot;#000000&quot;&gt;L&lt;/font&gt;" style="text;html=1;strokeColor=none;fillColor=none;align=center;verticalAlign=middle;whiteSpace=wrap;rounded=0;fontColor=#B266FF;" vertex="1" parent="eWBIfWHkdhwSmMv5W5uU-1">
          <mxGeometry x="70" y="-56" width="40" height="20" as="geometry" />
        </mxCell>
        <mxCell id="Fa_SpWF3yf8HMCXftZAc-67" value="&lt;font color=&quot;#000000&quot;&gt;L&lt;/font&gt;" style="text;html=1;align=center;verticalAlign=middle;resizable=0;points=[];autosize=1;strokeColor=none;fontColor=#B266FF;" vertex="1" parent="eWBIfWHkdhwSmMv5W5uU-1">
          <mxGeometry x="80" y="90" width="20" height="20" as="geometry" />
        </mxCell>
        <mxCell id="Fa_SpWF3yf8HMCXftZAc-68" value="&lt;font color=&quot;#000000&quot;&gt;在节点2后面插入节点&lt;/font&gt;" style="text;html=1;strokeColor=none;fillColor=none;align=center;verticalAlign=middle;whiteSpace=wrap;rounded=0;fontColor=#B266FF;" vertex="1" parent="eWBIfWHkdhwSmMv5W5uU-1">
          <mxGeometry x="107.5" y="-110" width="175" height="20" as="geometry" />
        </mxCell>
      </root>
    </mxGraphModel>
  </diagram>
  <diagram id="JPfsB5HtBtOX7ZQE4hxn" name="Page-5">
    <mxGraphModel dx="782" dy="1693" grid="0" gridSize="10" guides="1" tooltips="1" connect="1" arrows="1" fold="1" page="1" pageScale="1" pageWidth="827" pageHeight="1169" math="0" shadow="0">
      <root>
        <mxCell id="7D-i9nHhIeMYc9XS_aWA-0" />
        <mxCell id="7D-i9nHhIeMYc9XS_aWA-1" parent="7D-i9nHhIeMYc9XS_aWA-0" />
        <mxCell id="7D-i9nHhIeMYc9XS_aWA-21" value="" style="endArrow=classic;html=1;exitX=1;exitY=0.5;exitDx=0;exitDy=0;entryX=1;entryY=0.5;entryDx=0;entryDy=0;" edge="1" parent="7D-i9nHhIeMYc9XS_aWA-1">
          <mxGeometry x="51" y="-1324" width="50" height="50" as="geometry">
            <mxPoint x="81" y="-1090" as="sourcePoint" />
            <mxPoint x="121" y="-1090" as="targetPoint" />
          </mxGeometry>
        </mxCell>
        <mxCell id="7D-i9nHhIeMYc9XS_aWA-22" value="" style="group;fillColor=#647687;strokeColor=#314354;fontColor=#ffffff;" vertex="1" connectable="0" parent="7D-i9nHhIeMYc9XS_aWA-1">
          <mxGeometry x="121" y="-1110" width="100" height="40" as="geometry" />
        </mxCell>
        <mxCell id="7D-i9nHhIeMYc9XS_aWA-23" value="&lt;font style=&quot;font-size: 14px&quot;&gt;头节点&lt;/font&gt;" style="rounded=0;whiteSpace=wrap;html=1;direction=west;fillColor=#6a00ff;strokeColor=#3700CC;fontColor=#ffffff;" vertex="1" parent="7D-i9nHhIeMYc9XS_aWA-22">
          <mxGeometry width="81.82222222222222" height="40" as="geometry" />
        </mxCell>
        <mxCell id="7D-i9nHhIeMYc9XS_aWA-24" value="" style="rounded=0;whiteSpace=wrap;html=1;fillColor=#bac8d3;strokeColor=#23445d;" vertex="1" parent="7D-i9nHhIeMYc9XS_aWA-22">
          <mxGeometry x="81.81818181818183" width="18.181818181818183" height="40" as="geometry" />
        </mxCell>
        <mxCell id="7D-i9nHhIeMYc9XS_aWA-25" value="" style="group;fillColor=#60a917;strokeColor=#2D7600;fontColor=#ffffff;" vertex="1" connectable="0" parent="7D-i9nHhIeMYc9XS_aWA-1">
          <mxGeometry x="281" y="-1110" width="100" height="40" as="geometry" />
        </mxCell>
        <mxCell id="7D-i9nHhIeMYc9XS_aWA-26" value="&lt;font style=&quot;font-size: 14px&quot;&gt;1&lt;/font&gt;" style="rounded=0;whiteSpace=wrap;html=1;direction=west;fillColor=#60a917;strokeColor=#2D7600;fontColor=#ffffff;" vertex="1" parent="7D-i9nHhIeMYc9XS_aWA-25">
          <mxGeometry width="81.82222222222222" height="40" as="geometry" />
        </mxCell>
        <mxCell id="7D-i9nHhIeMYc9XS_aWA-27" value="" style="rounded=0;whiteSpace=wrap;html=1;fillColor=#bac8d3;strokeColor=#23445d;" vertex="1" parent="7D-i9nHhIeMYc9XS_aWA-25">
          <mxGeometry x="81.81818181818183" width="18.181818181818183" height="40" as="geometry" />
        </mxCell>
        <mxCell id="7D-i9nHhIeMYc9XS_aWA-28" value="" style="group;fillColor=#60a917;strokeColor=#2D7600;fontColor=#ffffff;" vertex="1" connectable="0" parent="7D-i9nHhIeMYc9XS_aWA-1">
          <mxGeometry x="431" y="-1110" width="100" height="40" as="geometry" />
        </mxCell>
        <mxCell id="7D-i9nHhIeMYc9XS_aWA-29" value="&lt;font style=&quot;font-size: 14px&quot;&gt;2&lt;/font&gt;" style="rounded=0;whiteSpace=wrap;html=1;direction=west;fillColor=#60a917;strokeColor=#2D7600;fontColor=#ffffff;" vertex="1" parent="7D-i9nHhIeMYc9XS_aWA-28">
          <mxGeometry width="81.82222222222222" height="40" as="geometry" />
        </mxCell>
        <mxCell id="7D-i9nHhIeMYc9XS_aWA-30" value="" style="rounded=0;whiteSpace=wrap;html=1;fillColor=#bac8d3;strokeColor=#23445d;" vertex="1" parent="7D-i9nHhIeMYc9XS_aWA-28">
          <mxGeometry x="81.81818181818183" width="18.181818181818183" height="40" as="geometry" />
        </mxCell>
        <mxCell id="7D-i9nHhIeMYc9XS_aWA-31" style="edgeStyle=orthogonalEdgeStyle;rounded=0;orthogonalLoop=1;jettySize=auto;html=1;exitX=1;exitY=0.5;exitDx=0;exitDy=0;entryX=1;entryY=0.5;entryDx=0;entryDy=0;" edge="1" parent="7D-i9nHhIeMYc9XS_aWA-1" source="7D-i9nHhIeMYc9XS_aWA-24" target="7D-i9nHhIeMYc9XS_aWA-26">
          <mxGeometry x="111" y="-1324" as="geometry" />
        </mxCell>
        <mxCell id="7D-i9nHhIeMYc9XS_aWA-32" style="edgeStyle=orthogonalEdgeStyle;rounded=0;orthogonalLoop=1;jettySize=auto;html=1;exitX=1;exitY=0.5;exitDx=0;exitDy=0;entryX=1;entryY=0.5;entryDx=0;entryDy=0;" edge="1" parent="7D-i9nHhIeMYc9XS_aWA-1" source="7D-i9nHhIeMYc9XS_aWA-27" target="7D-i9nHhIeMYc9XS_aWA-29">
          <mxGeometry x="111" y="-1324" as="geometry" />
        </mxCell>
        <mxCell id="7D-i9nHhIeMYc9XS_aWA-33" value="" style="group;fillColor=#60a917;strokeColor=#2D7600;fontColor=#ffffff;" vertex="1" connectable="0" parent="7D-i9nHhIeMYc9XS_aWA-1">
          <mxGeometry x="591" y="-1110" width="100" height="40" as="geometry" />
        </mxCell>
        <mxCell id="7D-i9nHhIeMYc9XS_aWA-34" value="&lt;font style=&quot;font-size: 14px&quot;&gt;3&lt;/font&gt;" style="rounded=0;whiteSpace=wrap;html=1;direction=west;fillColor=#60a917;strokeColor=#2D7600;fontColor=#ffffff;" vertex="1" parent="7D-i9nHhIeMYc9XS_aWA-33">
          <mxGeometry width="81.82222222222222" height="40" as="geometry" />
        </mxCell>
        <mxCell id="7D-i9nHhIeMYc9XS_aWA-35" value="" style="rounded=0;whiteSpace=wrap;html=1;fillColor=#bac8d3;strokeColor=#23445d;" vertex="1" parent="7D-i9nHhIeMYc9XS_aWA-33">
          <mxGeometry x="81.81818181818183" width="18.181818181818183" height="40" as="geometry" />
        </mxCell>
        <mxCell id="7D-i9nHhIeMYc9XS_aWA-36" style="edgeStyle=orthogonalEdgeStyle;rounded=0;orthogonalLoop=1;jettySize=auto;html=1;exitX=1;exitY=0.5;exitDx=0;exitDy=0;entryX=1;entryY=0.5;entryDx=0;entryDy=0;" edge="1" parent="7D-i9nHhIeMYc9XS_aWA-1" source="7D-i9nHhIeMYc9XS_aWA-30" target="7D-i9nHhIeMYc9XS_aWA-34">
          <mxGeometry x="111" y="-1324" as="geometry" />
        </mxCell>
        <mxCell id="7D-i9nHhIeMYc9XS_aWA-37" style="edgeStyle=orthogonalEdgeStyle;rounded=0;orthogonalLoop=1;jettySize=auto;html=1;exitX=1;exitY=0.5;exitDx=0;exitDy=0;" edge="1" parent="7D-i9nHhIeMYc9XS_aWA-1" source="7D-i9nHhIeMYc9XS_aWA-35">
          <mxGeometry x="111" y="-1324" as="geometry">
            <mxPoint x="721" y="-1090" as="targetPoint" />
          </mxGeometry>
        </mxCell>
        <mxCell id="7D-i9nHhIeMYc9XS_aWA-38" value="NULL" style="text;html=1;align=center;verticalAlign=middle;resizable=0;points=[];autosize=1;strokeColor=none;" vertex="1" parent="7D-i9nHhIeMYc9XS_aWA-1">
          <mxGeometry x="731" y="-1100" width="50" height="20" as="geometry" />
        </mxCell>
        <mxCell id="7D-i9nHhIeMYc9XS_aWA-39" value="&lt;font color=&quot;#000000&quot;&gt;L&lt;/font&gt;" style="text;html=1;strokeColor=none;fillColor=none;align=center;verticalAlign=middle;whiteSpace=wrap;rounded=0;fontColor=#B266FF;" vertex="1" parent="7D-i9nHhIeMYc9XS_aWA-1">
          <mxGeometry x="46" y="-1100" width="40" height="20" as="geometry" />
        </mxCell>
        <mxCell id="7D-i9nHhIeMYc9XS_aWA-41" style="edgeStyle=orthogonalEdgeStyle;rounded=0;orthogonalLoop=1;jettySize=auto;html=1;exitX=0.5;exitY=0;exitDx=0;exitDy=0;entryX=0.5;entryY=0;entryDx=0;entryDy=0;fontColor=#B266FF;" edge="1" parent="7D-i9nHhIeMYc9XS_aWA-1" source="7D-i9nHhIeMYc9XS_aWA-40" target="7D-i9nHhIeMYc9XS_aWA-26">
          <mxGeometry relative="1" as="geometry" />
        </mxCell>
        <mxCell id="7D-i9nHhIeMYc9XS_aWA-40" value="&lt;font color=&quot;#000000&quot; style=&quot;font-size: 14px&quot;&gt;p&lt;/font&gt;" style="text;html=1;strokeColor=none;fillColor=none;align=center;verticalAlign=middle;whiteSpace=wrap;rounded=0;fontColor=#B266FF;" vertex="1" parent="7D-i9nHhIeMYc9XS_aWA-1">
          <mxGeometry x="302" y="-990" width="38" height="20" as="geometry" />
        </mxCell>
        <mxCell id="7D-i9nHhIeMYc9XS_aWA-43" style="edgeStyle=orthogonalEdgeStyle;rounded=0;orthogonalLoop=1;jettySize=auto;html=1;exitX=0.5;exitY=0;exitDx=0;exitDy=0;fontColor=#B266FF;entryX=0.5;entryY=0;entryDx=0;entryDy=0;" edge="1" parent="7D-i9nHhIeMYc9XS_aWA-1" target="7D-i9nHhIeMYc9XS_aWA-29">
          <mxGeometry relative="1" as="geometry">
            <mxPoint x="481" y="-1060" as="targetPoint" />
            <mxPoint x="471.9100000000001" y="-990" as="sourcePoint" />
          </mxGeometry>
        </mxCell>
        <mxCell id="7D-i9nHhIeMYc9XS_aWA-47" value="&lt;font style=&quot;font-size: 14px&quot;&gt;q(指向待删除的节点)&lt;/font&gt;" style="text;html=1;strokeColor=none;fillColor=none;align=center;verticalAlign=middle;whiteSpace=wrap;rounded=0;fontSize=14;" vertex="1" parent="7D-i9nHhIeMYc9XS_aWA-1">
          <mxGeometry x="393" y="-990" width="198" height="20" as="geometry" />
        </mxCell>
        <mxCell id="7D-i9nHhIeMYc9XS_aWA-49" style="edgeStyle=orthogonalEdgeStyle;rounded=0;orthogonalLoop=1;jettySize=auto;html=1;exitX=0.5;exitY=0;exitDx=0;exitDy=0;entryX=0.5;entryY=1;entryDx=0;entryDy=0;fontSize=14;fontColor=#000000;" edge="1" parent="7D-i9nHhIeMYc9XS_aWA-1" source="7D-i9nHhIeMYc9XS_aWA-27" target="7D-i9nHhIeMYc9XS_aWA-34">
          <mxGeometry relative="1" as="geometry">
            <Array as="points">
              <mxPoint x="372" y="-1140" />
              <mxPoint x="632" y="-1140" />
            </Array>
          </mxGeometry>
        </mxCell>
        <mxCell id="7D-i9nHhIeMYc9XS_aWA-50" value="p-&amp;gt;next = q-&amp;gt;next;" style="edgeLabel;html=1;align=center;verticalAlign=middle;resizable=0;points=[];fontSize=14;fontColor=#000000;" vertex="1" connectable="0" parent="7D-i9nHhIeMYc9XS_aWA-49">
          <mxGeometry x="-0.0994" y="-3" relative="1" as="geometry">
            <mxPoint x="-5" y="-3" as="offset" />
          </mxGeometry>
        </mxCell>
        <mxCell id="xp-w6rDmbmepsrTcIk-P-0" value="" style="verticalLabelPosition=bottom;verticalAlign=top;html=1;shape=mxgraph.basic.x;fillColor=#FF0000;gradientColor=none;strokeColor=none;" vertex="1" parent="7D-i9nHhIeMYc9XS_aWA-1">
          <mxGeometry x="393.5" y="-1105" width="20" height="30" as="geometry" />
        </mxCell>
      </root>
    </mxGraphModel>
  </diagram>
</mxfile>
